<svg xmlns="http://www.w3.org/2000/svg" viewBox="0 0 1024 1024" width="1024" height="1024">
<rect width="1024" height="1024" fill="#0A0E1B"/>
<g data-ring="0" stroke="#FF2E9F" stroke-width="12.288" stroke-linecap="round">
  <line x1="591.36" y1="512.00" x2="637.44" y2="512.00"/>
  <line x1="585.32" y1="542.37" x2="627.89" y2="560.00"/>
  <line x1="568.12" y1="568.12" x2="600.70" y2="600.70"/>
  <line x1="542.37" y1="585.32" x2="560.00" y2="627.89"/>
  <line x1="512.00" y1="591.36" x2="512.00" y2="637.44"/>
  <line x1="481.63" y1="585.32" x2="464.00" y2="627.89"/>
  <line x1="455.88" y1="568.12" x2="423.30" y2="600.70"/>
  <line x1="438.68" y1="542.37" x2="396.11" y2="560.00"/>
  <line x1="432.64" y1="512.00" x2="386.56" y2="512.00"/>
  <line x1="438.68" y1="481.63" x2="396.11" y2="464.00"/>
  <line x1="455.88" y1="455.88" x2="423.30" y2="423.30"/>
  <line x1="481.63" y1="438.68" x2="464.00" y2="396.11"/>
  <line x1="512.00" y1="432.64" x2="512.00" y2="386.56"/>
  <line x1="542.37" y1="438.68" x2="560.00" y2="396.11"/>
  <line x1="568.12" y1="455.88" x2="600.70" y2="423.30"/>
  <line x1="585.32" y1="481.63" x2="627.89" y2="464.00"/>
</g>
<g data-ring="1" stroke="#B14AFF" stroke-width="12.288" stroke-linecap="round">
  <line x1="703.53" y1="525.39" x2="749.50" y2="528.61"/>
  <line x1="683.83" y1="597.67" x2="725.07" y2="618.23"/>
  <line x1="637.96" y1="656.90" x2="668.19" y2="691.68"/>
  <line x1="572.92" y1="694.08" x2="587.54" y2="737.78"/>
  <line x1="498.61" y1="703.53" x2="495.39" y2="749.50"/>
  <line x1="426.33" y1="683.83" x2="405.77" y2="725.07"/>
  <line x1="367.10" y1="637.96" x2="332.32" y2="668.19"/>
  <line x1="329.92" y1="572.92" x2="286.22" y2="587.54"/>
  <line x1="320.47" y1="498.61" x2="274.50" y2="495.39"/>
  <line x1="340.17" y1="426.33" x2="298.93" y2="405.77"/>
  <line x1="386.04" y1="367.10" x2="355.81" y2="332.32"/>
  <line x1="451.08" y1="329.92" x2="436.46" y2="286.22"/>
  <line x1="525.39" y1="320.47" x2="528.61" y2="274.50"/>
  <line x1="597.67" y1="340.17" x2="618.23" y2="298.93"/>
  <line x1="656.90" y1="386.04" x2="691.68" y2="355.81"/>
  <line x1="694.08" y1="451.08" x2="737.78" y2="436.46"/>
</g>
<g data-ring="2" stroke="#B14AFF" stroke-width="12.288" stroke-linecap="round">
  <line x1="813.68" y1="554.40" x2="859.31" y2="560.81"/>
  <line x1="774.49" y1="666.62" x2="814.19" y2="690.00"/>
  <line x1="695.34" y1="755.30" x2="723.07" y2="792.10"/>
  <line x1="588.28" y1="806.94" x2="599.81" y2="851.55"/>
  <line x1="469.60" y1="813.68" x2="463.19" y2="859.31"/>
  <line x1="357.38" y1="774.49" x2="334.00" y2="814.19"/>
  <line x1="268.70" y1="695.34" x2="231.90" y2="723.07"/>
  <line x1="217.06" y1="588.28" x2="172.45" y2="599.81"/>
  <line x1="210.32" y1="469.60" x2="164.69" y2="463.19"/>
  <line x1="249.51" y1="357.38" x2="209.81" y2="334.00"/>
  <line x1="328.66" y1="268.70" x2="300.93" y2="231.90"/>
  <line x1="435.72" y1="217.06" x2="424.19" y2="172.45"/>
  <line x1="554.40" y1="210.32" x2="560.81" y2="164.69"/>
  <line x1="666.62" y1="249.51" x2="690.00" y2="209.81"/>
  <line x1="755.30" y1="328.66" x2="792.10" y2="300.93"/>
  <line x1="806.94" y1="435.72" x2="851.55" y2="424.19"/>
</g>
<g data-ring="3" stroke="#5EEAFF" stroke-width="12.288" stroke-linecap="round">
  <line x1="920.16" y1="598.76" x2="965.23" y2="608.34"/>
  <line x1="855.89" y1="748.35" x2="893.87" y2="774.45"/>
  <line x1="739.27" y1="861.96" x2="764.36" y2="900.61"/>
  <line x1="588.04" y1="922.29" x2="596.44" y2="967.60"/>
  <line x1="425.24" y1="920.16" x2="415.66" y2="965.23"/>
  <line x1="275.65" y1="855.89" x2="249.55" y2="893.87"/>
  <line x1="162.04" y1="739.27" x2="123.39" y2="764.36"/>
  <line x1="101.71" y1="588.04" x2="56.40" y2="596.44"/>
  <line x1="103.84" y1="425.24" x2="58.77" y2="415.66"/>
  <line x1="168.11" y1="275.65" x2="130.13" y2="249.55"/>
  <line x1="284.73" y1="162.04" x2="259.64" y2="123.39"/>
  <line x1="435.96" y1="101.71" x2="427.56" y2="56.40"/>
  <line x1="598.76" y1="103.84" x2="608.34" y2="58.77"/>
  <line x1="748.35" y1="168.11" x2="774.45" y2="130.13"/>
  <line x1="861.96" y1="284.73" x2="900.61" y2="259.64"/>
  <line x1="922.29" y1="435.96" x2="967.60" y2="427.56"/>
</g>
<circle cx="512.0" cy="512.0" r="25.60" fill="#FFE13B"/>
</svg>