<svg xmlns="http://www.w3.org/2000/svg" viewBox="0 0 768 256" width="768" height="256">
  <rect width="768" height="256" fill="#00061a"/>
  <g transform="translate(0, 0)">
<g data-ring="0" stroke="#FF2E9F" stroke-width="1.485" stroke-linecap="round">
  <line x1="147.46" y1="128.00" x2="152.06" y2="128.00"/>
  <line x1="147.36" y1="129.91" x2="151.95" y2="130.36"/>
  <line x1="147.08" y1="131.80" x2="151.60" y2="132.69"/>
  <line x1="146.62" y1="133.65" x2="151.03" y2="134.99"/>
  <line x1="145.98" y1="135.45" x2="150.23" y2="137.21"/>
  <line x1="145.16" y1="137.17" x2="149.22" y2="139.34"/>
  <line x1="144.18" y1="138.81" x2="148.01" y2="141.37"/>
  <line x1="143.04" y1="140.34" x2="146.60" y2="143.27"/>
  <line x1="141.76" y1="141.76" x2="145.02" y2="145.02"/>
  <line x1="140.34" y1="143.04" x2="143.27" y2="146.60"/>
  <line x1="138.81" y1="144.18" x2="141.37" y2="148.01"/>
  <line x1="137.17" y1="145.16" x2="139.34" y2="149.22"/>
  <line x1="135.45" y1="145.98" x2="137.21" y2="150.23"/>
  <line x1="133.65" y1="146.62" x2="134.99" y2="151.03"/>
  <line x1="131.80" y1="147.08" x2="132.69" y2="151.60"/>
  <line x1="129.91" y1="147.36" x2="130.36" y2="151.95"/>
  <line x1="128.00" y1="147.46" x2="128.00" y2="152.06"/>
  <line x1="126.09" y1="147.36" x2="125.64" y2="151.95"/>
  <line x1="124.20" y1="147.08" x2="123.31" y2="151.60"/>
  <line x1="122.35" y1="146.62" x2="121.01" y2="151.03"/>
  <line x1="120.55" y1="145.98" x2="118.79" y2="150.23"/>
  <line x1="118.83" y1="145.16" x2="116.66" y2="149.22"/>
  <line x1="117.19" y1="144.18" x2="114.63" y2="148.01"/>
  <line x1="115.66" y1="143.04" x2="112.73" y2="146.60"/>
  <line x1="114.24" y1="141.76" x2="110.98" y2="145.02"/>
  <line x1="112.96" y1="140.34" x2="109.40" y2="143.27"/>
  <line x1="111.82" y1="138.81" x2="107.99" y2="141.37"/>
  <line x1="110.84" y1="137.17" x2="106.78" y2="139.34"/>
  <line x1="110.02" y1="135.45" x2="105.77" y2="137.21"/>
  <line x1="109.38" y1="133.65" x2="104.97" y2="134.99"/>
  <line x1="108.92" y1="131.80" x2="104.40" y2="132.69"/>
  <line x1="108.64" y1="129.91" x2="104.05" y2="130.36"/>
  <line x1="108.54" y1="128.00" x2="103.94" y2="128.00"/>
  <line x1="108.64" y1="126.09" x2="104.05" y2="125.64"/>
  <line x1="108.92" y1="124.20" x2="104.40" y2="123.31"/>
  <line x1="109.38" y1="122.35" x2="104.97" y2="121.01"/>
  <line x1="110.02" y1="120.55" x2="105.77" y2="118.79"/>
  <line x1="110.84" y1="118.83" x2="106.78" y2="116.66"/>
  <line x1="111.82" y1="117.19" x2="107.99" y2="114.63"/>
  <line x1="112.96" y1="115.66" x2="109.40" y2="112.73"/>
  <line x1="114.24" y1="114.24" x2="110.98" y2="110.98"/>
  <line x1="115.66" y1="112.96" x2="112.73" y2="109.40"/>
  <line x1="117.19" y1="111.82" x2="114.63" y2="107.99"/>
  <line x1="118.83" y1="110.84" x2="116.66" y2="106.78"/>
  <line x1="120.55" y1="110.02" x2="118.79" y2="105.77"/>
  <line x1="122.35" y1="109.38" x2="121.01" y2="104.97"/>
  <line x1="124.20" y1="108.92" x2="123.31" y2="104.40"/>
  <line x1="126.09" y1="108.64" x2="125.64" y2="104.05"/>
  <line x1="128.00" y1="108.54" x2="128.00" y2="103.94"/>
  <line x1="129.91" y1="108.64" x2="130.36" y2="104.05"/>
  <line x1="131.80" y1="108.92" x2="132.69" y2="104.40"/>
  <line x1="133.65" y1="109.38" x2="134.99" y2="104.97"/>
  <line x1="135.45" y1="110.02" x2="137.21" y2="105.77"/>
  <line x1="137.17" y1="110.84" x2="139.34" y2="106.78"/>
  <line x1="138.81" y1="111.82" x2="141.37" y2="107.99"/>
  <line x1="140.34" y1="112.96" x2="143.27" y2="109.40"/>
  <line x1="141.76" y1="114.24" x2="145.02" y2="110.98"/>
  <line x1="143.04" y1="115.66" x2="146.60" y2="112.73"/>
  <line x1="144.18" y1="117.19" x2="148.01" y2="114.63"/>
  <line x1="145.16" y1="118.83" x2="149.22" y2="116.66"/>
  <line x1="145.98" y1="120.55" x2="150.23" y2="118.79"/>
  <line x1="146.62" y1="122.35" x2="151.03" y2="121.01"/>
  <line x1="147.08" y1="124.20" x2="151.60" y2="123.31"/>
  <line x1="147.36" y1="126.09" x2="151.95" y2="125.64"/>
</g>
<g data-ring="1" stroke="#FF2E9F" stroke-width="1.485" stroke-linecap="round">
  <line x1="159.44" y1="128.88" x2="164.05" y2="129.01"/>
  <line x1="159.21" y1="131.96" x2="163.78" y2="132.54"/>
  <line x1="158.67" y1="135.00" x2="163.16" y2="136.02"/>
  <line x1="157.83" y1="137.97" x2="162.21" y2="139.43"/>
  <line x1="156.71" y1="140.84" x2="160.92" y2="142.73"/>
  <line x1="155.32" y1="143.60" x2="159.32" y2="145.88"/>
  <line x1="153.66" y1="146.20" x2="157.41" y2="148.87"/>
  <line x1="151.75" y1="148.63" x2="155.23" y2="151.65"/>
  <line x1="149.61" y1="150.86" x2="152.78" y2="154.20"/>
  <line x1="147.27" y1="152.86" x2="150.09" y2="156.51"/>
  <line x1="144.74" y1="154.63" x2="147.19" y2="158.53"/>
  <line x1="142.05" y1="156.14" x2="144.11" y2="160.27"/>
  <line x1="139.22" y1="157.39" x2="140.87" y2="161.69"/>
  <line x1="136.29" y1="158.34" x2="137.50" y2="162.79"/>
  <line x1="133.27" y1="159.01" x2="134.05" y2="163.55"/>
  <line x1="130.21" y1="159.38" x2="130.53" y2="163.98"/>
  <line x1="127.12" y1="159.44" x2="126.99" y2="164.05"/>
  <line x1="124.04" y1="159.21" x2="123.46" y2="163.78"/>
  <line x1="121.00" y1="158.67" x2="119.98" y2="163.16"/>
  <line x1="118.03" y1="157.83" x2="116.57" y2="162.21"/>
  <line x1="115.16" y1="156.71" x2="113.27" y2="160.92"/>
  <line x1="112.40" y1="155.32" x2="110.12" y2="159.32"/>
  <line x1="109.80" y1="153.66" x2="107.13" y2="157.41"/>
  <line x1="107.37" y1="151.75" x2="104.35" y2="155.23"/>
  <line x1="105.14" y1="149.61" x2="101.80" y2="152.78"/>
  <line x1="103.14" y1="147.27" x2="99.49" y2="150.09"/>
  <line x1="101.37" y1="144.74" x2="97.47" y2="147.19"/>
  <line x1="99.86" y1="142.05" x2="95.73" y2="144.11"/>
  <line x1="98.61" y1="139.22" x2="94.31" y2="140.87"/>
  <line x1="97.66" y1="136.29" x2="93.21" y2="137.50"/>
  <line x1="96.99" y1="133.27" x2="92.45" y2="134.05"/>
  <line x1="96.62" y1="130.21" x2="92.02" y2="130.53"/>
  <line x1="96.56" y1="127.12" x2="91.95" y2="126.99"/>
  <line x1="96.79" y1="124.04" x2="92.22" y2="123.46"/>
  <line x1="97.33" y1="121.00" x2="92.84" y2="119.98"/>
  <line x1="98.17" y1="118.03" x2="93.79" y2="116.57"/>
  <line x1="99.29" y1="115.16" x2="95.08" y2="113.27"/>
  <line x1="100.68" y1="112.40" x2="96.68" y2="110.12"/>
  <line x1="102.34" y1="109.80" x2="98.59" y2="107.13"/>
  <line x1="104.25" y1="107.37" x2="100.77" y2="104.35"/>
  <line x1="106.39" y1="105.14" x2="103.22" y2="101.80"/>
  <line x1="108.73" y1="103.14" x2="105.91" y2="99.49"/>
  <line x1="111.26" y1="101.37" x2="108.81" y2="97.47"/>
  <line x1="113.95" y1="99.86" x2="111.89" y2="95.73"/>
  <line x1="116.78" y1="98.61" x2="115.13" y2="94.31"/>
  <line x1="119.71" y1="97.66" x2="118.50" y2="93.21"/>
  <line x1="122.73" y1="96.99" x2="121.95" y2="92.45"/>
  <line x1="125.79" y1="96.62" x2="125.47" y2="92.02"/>
  <line x1="128.88" y1="96.56" x2="129.01" y2="91.95"/>
  <line x1="131.96" y1="96.79" x2="132.54" y2="92.22"/>
  <line x1="135.00" y1="97.33" x2="136.02" y2="92.84"/>
  <line x1="137.97" y1="98.17" x2="139.43" y2="93.79"/>
  <line x1="140.84" y1="99.29" x2="142.73" y2="95.08"/>
  <line x1="143.60" y1="100.68" x2="145.88" y2="96.68"/>
  <line x1="146.20" y1="102.34" x2="148.87" y2="98.59"/>
  <line x1="148.63" y1="104.25" x2="151.65" y2="100.77"/>
  <line x1="150.86" y1="106.39" x2="154.20" y2="103.22"/>
  <line x1="152.86" y1="108.73" x2="156.51" y2="105.91"/>
  <line x1="154.63" y1="111.26" x2="158.53" y2="108.81"/>
  <line x1="156.14" y1="113.95" x2="160.27" y2="111.89"/>
  <line x1="157.39" y1="116.78" x2="161.69" y2="115.13"/>
  <line x1="158.34" y1="119.71" x2="162.79" y2="118.50"/>
  <line x1="159.01" y1="122.73" x2="163.55" y2="121.95"/>
  <line x1="159.38" y1="125.79" x2="163.98" y2="125.47"/>
</g>
<g data-ring="2" stroke="#FF2E9F" stroke-width="1.485" stroke-linecap="round">
  <line x1="171.39" y1="130.43" x2="175.99" y2="130.68"/>
  <line x1="170.94" y1="134.67" x2="175.49" y2="135.37"/>
  <line x1="170.08" y1="138.84" x2="174.54" y2="139.99"/>
  <line x1="168.82" y1="142.92" x2="173.14" y2="144.50"/>
  <line x1="167.16" y1="146.85" x2="171.31" y2="148.84"/>
  <line x1="165.12" y1="150.59" x2="169.06" y2="152.99"/>
  <line x1="162.73" y1="154.12" x2="166.41" y2="156.89"/>
  <line x1="160.00" y1="157.40" x2="163.39" y2="160.52"/>
  <line x1="156.96" y1="160.40" x2="160.04" y2="163.83"/>
  <line x1="153.65" y1="163.08" x2="156.37" y2="166.80"/>
  <line x1="150.09" y1="165.42" x2="152.43" y2="169.39"/>
  <line x1="146.31" y1="167.41" x2="148.26" y2="171.59"/>
  <line x1="142.36" y1="169.01" x2="143.89" y2="173.36"/>
  <line x1="138.27" y1="170.22" x2="139.36" y2="174.70"/>
  <line x1="134.09" y1="171.03" x2="134.73" y2="175.59"/>
  <line x1="129.84" y1="171.42" x2="130.03" y2="176.02"/>
  <line x1="125.57" y1="171.39" x2="125.32" y2="175.99"/>
  <line x1="121.33" y1="170.94" x2="120.63" y2="175.49"/>
  <line x1="117.16" y1="170.08" x2="116.01" y2="174.54"/>
  <line x1="113.08" y1="168.82" x2="111.50" y2="173.14"/>
  <line x1="109.15" y1="167.16" x2="107.16" y2="171.31"/>
  <line x1="105.41" y1="165.12" x2="103.01" y2="169.06"/>
  <line x1="101.88" y1="162.73" x2="99.11" y2="166.41"/>
  <line x1="98.60" y1="160.00" x2="95.48" y2="163.39"/>
  <line x1="95.60" y1="156.96" x2="92.17" y2="160.04"/>
  <line x1="92.92" y1="153.65" x2="89.20" y2="156.37"/>
  <line x1="90.58" y1="150.09" x2="86.61" y2="152.43"/>
  <line x1="88.59" y1="146.31" x2="84.41" y2="148.26"/>
  <line x1="86.99" y1="142.36" x2="82.64" y2="143.89"/>
  <line x1="85.78" y1="138.27" x2="81.30" y2="139.36"/>
  <line x1="84.97" y1="134.09" x2="80.41" y2="134.73"/>
  <line x1="84.58" y1="129.84" x2="79.98" y2="130.03"/>
  <line x1="84.61" y1="125.57" x2="80.01" y2="125.32"/>
  <line x1="85.06" y1="121.33" x2="80.51" y2="120.63"/>
  <line x1="85.92" y1="117.16" x2="81.46" y2="116.01"/>
  <line x1="87.18" y1="113.08" x2="82.86" y2="111.50"/>
  <line x1="88.84" y1="109.15" x2="84.69" y2="107.16"/>
  <line x1="90.88" y1="105.41" x2="86.94" y2="103.01"/>
  <line x1="93.27" y1="101.88" x2="89.59" y2="99.11"/>
  <line x1="96.00" y1="98.60" x2="92.61" y2="95.48"/>
  <line x1="99.04" y1="95.60" x2="95.96" y2="92.17"/>
  <line x1="102.35" y1="92.92" x2="99.63" y2="89.20"/>
  <line x1="105.91" y1="90.58" x2="103.57" y2="86.61"/>
  <line x1="109.69" y1="88.59" x2="107.74" y2="84.41"/>
  <line x1="113.64" y1="86.99" x2="112.11" y2="82.64"/>
  <line x1="117.73" y1="85.78" x2="116.64" y2="81.30"/>
  <line x1="121.91" y1="84.97" x2="121.27" y2="80.41"/>
  <line x1="126.16" y1="84.58" x2="125.97" y2="79.98"/>
  <line x1="130.43" y1="84.61" x2="130.68" y2="80.01"/>
  <line x1="134.67" y1="85.06" x2="135.37" y2="80.51"/>
  <line x1="138.84" y1="85.92" x2="139.99" y2="81.46"/>
  <line x1="142.92" y1="87.18" x2="144.50" y2="82.86"/>
  <line x1="146.85" y1="88.84" x2="148.84" y2="84.69"/>
  <line x1="150.59" y1="90.88" x2="152.99" y2="86.94"/>
  <line x1="154.12" y1="93.27" x2="156.89" y2="89.59"/>
  <line x1="157.40" y1="96.00" x2="160.52" y2="92.61"/>
  <line x1="160.40" y1="99.04" x2="163.83" y2="95.96"/>
  <line x1="163.08" y1="102.35" x2="166.80" y2="99.63"/>
  <line x1="165.42" y1="105.91" x2="169.39" y2="103.57"/>
  <line x1="167.41" y1="109.69" x2="171.59" y2="107.74"/>
  <line x1="169.01" y1="113.64" x2="173.36" y2="112.11"/>
  <line x1="170.22" y1="117.73" x2="174.70" y2="116.64"/>
  <line x1="171.03" y1="121.91" x2="175.59" y2="121.27"/>
  <line x1="171.42" y1="126.16" x2="176.02" y2="125.97"/>
</g>
<g data-ring="3" stroke="#B14AFF" stroke-width="1.485" stroke-linecap="round">
  <line x1="183.26" y1="132.64" x2="187.85" y2="133.03"/>
  <line x1="182.54" y1="138.03" x2="187.07" y2="138.87"/>
  <line x1="181.29" y1="143.33" x2="185.72" y2="144.61"/>
  <line x1="179.53" y1="148.48" x2="183.82" y2="150.18"/>
  <line x1="177.28" y1="153.43" x2="181.37" y2="155.55"/>
  <line x1="174.55" y1="158.14" x2="178.42" y2="160.65"/>
  <line x1="171.37" y1="162.56" x2="174.97" y2="165.43"/>
  <line x1="167.77" y1="166.64" x2="171.08" y2="169.86"/>
  <line x1="163.79" y1="170.36" x2="166.77" y2="173.88"/>
  <line x1="159.47" y1="173.66" x2="162.09" y2="177.46"/>
  <line x1="154.84" y1="176.53" x2="157.07" y2="180.56"/>
  <line x1="149.96" y1="178.92" x2="151.78" y2="183.16"/>
  <line x1="144.86" y1="180.83" x2="146.26" y2="185.22"/>
  <line x1="139.60" y1="182.23" x2="140.56" y2="186.74"/>
  <line x1="134.23" y1="183.10" x2="134.75" y2="187.68"/>
  <line x1="128.80" y1="183.45" x2="128.86" y2="188.06"/>
  <line x1="123.36" y1="183.26" x2="122.97" y2="187.85"/>
  <line x1="117.97" y1="182.54" x2="117.13" y2="187.07"/>
  <line x1="112.67" y1="181.29" x2="111.39" y2="185.72"/>
  <line x1="107.52" y1="179.53" x2="105.82" y2="183.82"/>
  <line x1="102.57" y1="177.28" x2="100.45" y2="181.37"/>
  <line x1="97.86" y1="174.55" x2="95.35" y2="178.42"/>
  <line x1="93.44" y1="171.37" x2="90.57" y2="174.97"/>
  <line x1="89.36" y1="167.77" x2="86.14" y2="171.08"/>
  <line x1="85.64" y1="163.79" x2="82.12" y2="166.77"/>
  <line x1="82.34" y1="159.47" x2="78.54" y2="162.09"/>
  <line x1="79.47" y1="154.84" x2="75.44" y2="157.07"/>
  <line x1="77.08" y1="149.96" x2="72.84" y2="151.78"/>
  <line x1="75.17" y1="144.86" x2="70.78" y2="146.26"/>
  <line x1="73.77" y1="139.60" x2="69.26" y2="140.56"/>
  <line x1="72.90" y1="134.23" x2="68.32" y2="134.75"/>
  <line x1="72.55" y1="128.80" x2="67.94" y2="128.86"/>
  <line x1="72.74" y1="123.36" x2="68.15" y2="122.97"/>
  <line x1="73.46" y1="117.97" x2="68.93" y2="117.13"/>
  <line x1="74.71" y1="112.67" x2="70.28" y2="111.39"/>
  <line x1="76.47" y1="107.52" x2="72.18" y2="105.82"/>
  <line x1="78.72" y1="102.57" x2="74.63" y2="100.45"/>
  <line x1="81.45" y1="97.86" x2="77.58" y2="95.35"/>
  <line x1="84.63" y1="93.44" x2="81.03" y2="90.57"/>
  <line x1="88.23" y1="89.36" x2="84.92" y2="86.14"/>
  <line x1="92.21" y1="85.64" x2="89.23" y2="82.12"/>
  <line x1="96.53" y1="82.34" x2="93.91" y2="78.54"/>
  <line x1="101.16" y1="79.47" x2="98.93" y2="75.44"/>
  <line x1="106.04" y1="77.08" x2="104.22" y2="72.84"/>
  <line x1="111.14" y1="75.17" x2="109.74" y2="70.78"/>
  <line x1="116.40" y1="73.77" x2="115.44" y2="69.26"/>
  <line x1="121.77" y1="72.90" x2="121.25" y2="68.32"/>
  <line x1="127.20" y1="72.55" x2="127.14" y2="67.94"/>
  <line x1="132.64" y1="72.74" x2="133.03" y2="68.15"/>
  <line x1="138.03" y1="73.46" x2="138.87" y2="68.93"/>
  <line x1="143.33" y1="74.71" x2="144.61" y2="70.28"/>
  <line x1="148.48" y1="76.47" x2="150.18" y2="72.18"/>
  <line x1="153.43" y1="78.72" x2="155.55" y2="74.63"/>
  <line x1="158.14" y1="81.45" x2="160.65" y2="77.58"/>
  <line x1="162.56" y1="84.63" x2="165.43" y2="81.03"/>
  <line x1="166.64" y1="88.23" x2="169.86" y2="84.92"/>
  <line x1="170.36" y1="92.21" x2="173.88" y2="89.23"/>
  <line x1="173.66" y1="96.53" x2="177.46" y2="93.91"/>
  <line x1="176.53" y1="101.16" x2="180.56" y2="98.93"/>
  <line x1="178.92" y1="106.04" x2="183.16" y2="104.22"/>
  <line x1="180.83" y1="111.14" x2="185.22" y2="109.74"/>
  <line x1="182.23" y1="116.40" x2="186.74" y2="115.44"/>
  <line x1="183.10" y1="121.77" x2="187.68" y2="121.25"/>
  <line x1="183.45" y1="127.20" x2="188.06" y2="127.14"/>
</g>
<g data-ring="4" stroke="#B14AFF" stroke-width="1.485" stroke-linecap="round">
  <line x1="195.04" y1="135.52" x2="199.61" y2="136.03"/>
  <line x1="193.98" y1="142.05" x2="198.48" y2="143.01"/>
  <line x1="192.28" y1="148.45" x2="196.67" y2="149.85"/>
  <line x1="189.97" y1="154.65" x2="194.20" y2="156.48"/>
  <line x1="187.06" y1="160.60" x2="191.09" y2="162.83"/>
  <line x1="183.58" y1="166.23" x2="187.37" y2="168.84"/>
  <line x1="179.56" y1="171.50" x2="183.08" y2="174.47"/>
  <line x1="175.05" y1="176.34" x2="178.26" y2="179.64"/>
  <line x1="170.08" y1="180.72" x2="172.96" y2="184.32"/>
  <line x1="164.71" y1="184.59" x2="167.22" y2="188.46"/>
  <line x1="158.99" y1="187.92" x2="161.11" y2="192.01"/>
  <line x1="152.97" y1="190.66" x2="154.67" y2="194.95"/>
  <line x1="146.71" y1="192.81" x2="147.98" y2="197.24"/>
  <line x1="140.26" y1="194.33" x2="141.10" y2="198.86"/>
  <line x1="133.70" y1="195.21" x2="134.09" y2="199.81"/>
  <line x1="127.09" y1="195.45" x2="127.03" y2="200.06"/>
  <line x1="120.48" y1="195.04" x2="119.97" y2="199.61"/>
  <line x1="113.95" y1="193.98" x2="112.99" y2="198.48"/>
  <line x1="107.55" y1="192.28" x2="106.15" y2="196.67"/>
  <line x1="101.35" y1="189.97" x2="99.52" y2="194.20"/>
  <line x1="95.40" y1="187.06" x2="93.17" y2="191.09"/>
  <line x1="89.77" y1="183.58" x2="87.16" y2="187.37"/>
  <line x1="84.50" y1="179.56" x2="81.53" y2="183.08"/>
  <line x1="79.66" y1="175.05" x2="76.36" y2="178.26"/>
  <line x1="75.28" y1="170.08" x2="71.68" y2="172.96"/>
  <line x1="71.41" y1="164.71" x2="67.54" y2="167.22"/>
  <line x1="68.08" y1="158.99" x2="63.99" y2="161.11"/>
  <line x1="65.34" y1="152.97" x2="61.05" y2="154.67"/>
  <line x1="63.19" y1="146.71" x2="58.76" y2="147.98"/>
  <line x1="61.67" y1="140.26" x2="57.14" y2="141.10"/>
  <line x1="60.79" y1="133.70" x2="56.19" y2="134.09"/>
  <line x1="60.55" y1="127.09" x2="55.94" y2="127.03"/>
  <line x1="60.96" y1="120.48" x2="56.39" y2="119.97"/>
  <line x1="62.02" y1="113.95" x2="57.52" y2="112.99"/>
  <line x1="63.72" y1="107.55" x2="59.33" y2="106.15"/>
  <line x1="66.03" y1="101.35" x2="61.80" y2="99.52"/>
  <line x1="68.94" y1="95.40" x2="64.91" y2="93.17"/>
  <line x1="72.42" y1="89.77" x2="68.63" y2="87.16"/>
  <line x1="76.44" y1="84.50" x2="72.92" y2="81.53"/>
  <line x1="80.95" y1="79.66" x2="77.74" y2="76.36"/>
  <line x1="85.92" y1="75.28" x2="83.04" y2="71.68"/>
  <line x1="91.29" y1="71.41" x2="88.78" y2="67.54"/>
  <line x1="97.01" y1="68.08" x2="94.89" y2="63.99"/>
  <line x1="103.03" y1="65.34" x2="101.33" y2="61.05"/>
  <line x1="109.29" y1="63.19" x2="108.02" y2="58.76"/>
  <line x1="115.74" y1="61.67" x2="114.90" y2="57.14"/>
  <line x1="122.30" y1="60.79" x2="121.91" y2="56.19"/>
  <line x1="128.91" y1="60.55" x2="128.97" y2="55.94"/>
  <line x1="135.52" y1="60.96" x2="136.03" y2="56.39"/>
  <line x1="142.05" y1="62.02" x2="143.01" y2="57.52"/>
  <line x1="148.45" y1="63.72" x2="149.85" y2="59.33"/>
  <line x1="154.65" y1="66.03" x2="156.48" y2="61.80"/>
  <line x1="160.60" y1="68.94" x2="162.83" y2="64.91"/>
  <line x1="166.23" y1="72.42" x2="168.84" y2="68.63"/>
  <line x1="171.50" y1="76.44" x2="174.47" y2="72.92"/>
  <line x1="176.34" y1="80.95" x2="179.64" y2="77.74"/>
  <line x1="180.72" y1="85.92" x2="184.32" y2="83.04"/>
  <line x1="184.59" y1="91.29" x2="188.46" y2="88.78"/>
  <line x1="187.92" y1="97.01" x2="192.01" y2="94.89"/>
  <line x1="190.66" y1="103.03" x2="194.95" y2="101.33"/>
  <line x1="192.81" y1="109.29" x2="197.24" y2="108.02"/>
  <line x1="194.33" y1="115.74" x2="198.86" y2="114.90"/>
  <line x1="195.21" y1="122.30" x2="199.81" y2="121.91"/>
  <line x1="195.45" y1="128.91" x2="200.06" y2="128.97"/>
</g>
<g data-ring="5" stroke="#B14AFF" stroke-width="1.485" stroke-linecap="round">
  <line x1="206.68" y1="139.06" x2="211.25" y2="139.70"/>
  <line x1="205.22" y1="146.72" x2="209.70" y2="147.80"/>
  <line x1="203.01" y1="154.20" x2="207.36" y2="155.72"/>
  <line x1="200.08" y1="161.42" x2="204.27" y2="163.36"/>
  <line x1="196.46" y1="168.33" x2="200.43" y2="170.67"/>
  <line x1="192.18" y1="174.84" x2="195.90" y2="177.56"/>
  <line x1="187.28" y1="180.91" x2="190.72" y2="183.98"/>
  <line x1="181.81" y1="186.46" x2="184.93" y2="189.85"/>
  <line x1="175.82" y1="191.46" x2="178.59" y2="195.14"/>
  <line x1="169.37" y1="195.84" x2="171.77" y2="199.77"/>
  <line x1="162.52" y1="199.57" x2="164.52" y2="203.72"/>
  <line x1="155.34" y1="202.60" x2="156.92" y2="206.93"/>
  <line x1="147.89" y1="204.93" x2="149.05" y2="209.39"/>
  <line x1="140.26" y1="206.50" x2="140.97" y2="211.06"/>
  <line x1="132.50" y1="207.33" x2="132.77" y2="211.93"/>
  <line x1="124.71" y1="207.39" x2="124.52" y2="211.99"/>
  <line x1="116.94" y1="206.68" x2="116.30" y2="211.25"/>
  <line x1="109.28" y1="205.22" x2="108.20" y2="209.70"/>
  <line x1="101.80" y1="203.01" x2="100.28" y2="207.36"/>
  <line x1="94.58" y1="200.08" x2="92.64" y2="204.27"/>
  <line x1="87.67" y1="196.46" x2="85.33" y2="200.43"/>
  <line x1="81.16" y1="192.18" x2="78.44" y2="195.90"/>
  <line x1="75.09" y1="187.28" x2="72.02" y2="190.72"/>
  <line x1="69.54" y1="181.81" x2="66.15" y2="184.93"/>
  <line x1="64.54" y1="175.82" x2="60.86" y2="178.59"/>
  <line x1="60.16" y1="169.37" x2="56.23" y2="171.77"/>
  <line x1="56.43" y1="162.52" x2="52.28" y2="164.52"/>
  <line x1="53.40" y1="155.34" x2="49.07" y2="156.92"/>
  <line x1="51.07" y1="147.89" x2="46.61" y2="149.05"/>
  <line x1="49.50" y1="140.26" x2="44.94" y2="140.97"/>
  <line x1="48.67" y1="132.50" x2="44.07" y2="132.77"/>
  <line x1="48.61" y1="124.71" x2="44.01" y2="124.52"/>
  <line x1="49.32" y1="116.94" x2="44.75" y2="116.30"/>
  <line x1="50.78" y1="109.28" x2="46.30" y2="108.20"/>
  <line x1="52.99" y1="101.80" x2="48.64" y2="100.28"/>
  <line x1="55.92" y1="94.58" x2="51.73" y2="92.64"/>
  <line x1="59.54" y1="87.67" x2="55.57" y2="85.33"/>
  <line x1="63.82" y1="81.16" x2="60.10" y2="78.44"/>
  <line x1="68.72" y1="75.09" x2="65.28" y2="72.02"/>
  <line x1="74.19" y1="69.54" x2="71.07" y2="66.15"/>
  <line x1="80.18" y1="64.54" x2="77.41" y2="60.86"/>
  <line x1="86.63" y1="60.16" x2="84.23" y2="56.23"/>
  <line x1="93.48" y1="56.43" x2="91.48" y2="52.28"/>
  <line x1="100.66" y1="53.40" x2="99.08" y2="49.07"/>
  <line x1="108.11" y1="51.07" x2="106.95" y2="46.61"/>
  <line x1="115.74" y1="49.50" x2="115.03" y2="44.94"/>
  <line x1="123.50" y1="48.67" x2="123.23" y2="44.07"/>
  <line x1="131.29" y1="48.61" x2="131.48" y2="44.01"/>
  <line x1="139.06" y1="49.32" x2="139.70" y2="44.75"/>
  <line x1="146.72" y1="50.78" x2="147.80" y2="46.30"/>
  <line x1="154.20" y1="52.99" x2="155.72" y2="48.64"/>
  <line x1="161.42" y1="55.92" x2="163.36" y2="51.73"/>
  <line x1="168.33" y1="59.54" x2="170.67" y2="55.57"/>
  <line x1="174.84" y1="63.82" x2="177.56" y2="60.10"/>
  <line x1="180.91" y1="68.72" x2="183.98" y2="65.28"/>
  <line x1="186.46" y1="74.19" x2="189.85" y2="71.07"/>
  <line x1="191.46" y1="80.18" x2="195.14" y2="77.41"/>
  <line x1="195.84" y1="86.63" x2="199.77" y2="84.23"/>
  <line x1="199.57" y1="93.48" x2="203.72" y2="91.48"/>
  <line x1="202.60" y1="100.66" x2="206.93" y2="99.08"/>
  <line x1="204.93" y1="108.11" x2="209.39" y2="106.95"/>
  <line x1="206.50" y1="115.74" x2="211.06" y2="115.03"/>
  <line x1="207.33" y1="123.50" x2="211.93" y2="123.23"/>
  <line x1="207.39" y1="131.29" x2="211.99" y2="131.48"/>
</g>
<g data-ring="6" stroke="#5EEAFF" stroke-width="1.485" stroke-linecap="round">
  <line x1="218.18" y1="143.25" x2="222.72" y2="144.02"/>
  <line x1="216.25" y1="152.02" x2="220.69" y2="153.23"/>
  <line x1="213.47" y1="160.55" x2="217.77" y2="162.19"/>
  <line x1="209.86" y1="168.77" x2="213.99" y2="170.83"/>
  <line x1="205.47" y1="176.60" x2="209.38" y2="179.05"/>
  <line x1="200.34" y1="183.96" x2="203.98" y2="186.78"/>
  <line x1="194.50" y1="190.78" x2="197.86" y2="193.94"/>
  <line x1="188.03" y1="197.00" x2="191.06" y2="200.47"/>
  <line x1="180.98" y1="202.55" x2="183.65" y2="206.30"/>
  <line x1="173.42" y1="207.38" x2="175.70" y2="211.38"/>
  <line x1="165.42" y1="211.45" x2="167.30" y2="215.66"/>
  <line x1="157.06" y1="214.72" x2="158.52" y2="219.09"/>
  <line x1="148.42" y1="217.15" x2="149.45" y2="221.64"/>
  <line x1="139.58" y1="218.72" x2="140.16" y2="223.29"/>
  <line x1="130.63" y1="219.42" x2="130.77" y2="224.02"/>
  <line x1="121.66" y1="219.24" x2="121.34" y2="223.83"/>
  <line x1="112.75" y1="218.18" x2="111.98" y2="222.72"/>
  <line x1="103.98" y1="216.25" x2="102.77" y2="220.69"/>
  <line x1="95.45" y1="213.47" x2="93.81" y2="217.77"/>
  <line x1="87.23" y1="209.86" x2="85.17" y2="213.99"/>
  <line x1="79.40" y1="205.47" x2="76.95" y2="209.38"/>
  <line x1="72.04" y1="200.34" x2="69.22" y2="203.98"/>
  <line x1="65.22" y1="194.50" x2="62.06" y2="197.86"/>
  <line x1="59.00" y1="188.03" x2="55.53" y2="191.06"/>
  <line x1="53.45" y1="180.98" x2="49.70" y2="183.65"/>
  <line x1="48.62" y1="173.42" x2="44.62" y2="175.70"/>
  <line x1="44.55" y1="165.42" x2="40.34" y2="167.30"/>
  <line x1="41.28" y1="157.06" x2="36.91" y2="158.52"/>
  <line x1="38.85" y1="148.42" x2="34.36" y2="149.45"/>
  <line x1="37.28" y1="139.58" x2="32.71" y2="140.16"/>
  <line x1="36.58" y1="130.63" x2="31.98" y2="130.77"/>
  <line x1="36.76" y1="121.66" x2="32.17" y2="121.34"/>
  <line x1="37.82" y1="112.75" x2="33.28" y2="111.98"/>
  <line x1="39.75" y1="103.98" x2="35.31" y2="102.77"/>
  <line x1="42.53" y1="95.45" x2="38.23" y2="93.81"/>
  <line x1="46.14" y1="87.23" x2="42.01" y2="85.17"/>
  <line x1="50.53" y1="79.40" x2="46.62" y2="76.95"/>
  <line x1="55.66" y1="72.04" x2="52.02" y2="69.22"/>
  <line x1="61.50" y1="65.22" x2="58.14" y2="62.06"/>
  <line x1="67.97" y1="59.00" x2="64.94" y2="55.53"/>
  <line x1="75.02" y1="53.45" x2="72.35" y2="49.70"/>
  <line x1="82.58" y1="48.62" x2="80.30" y2="44.62"/>
  <line x1="90.58" y1="44.55" x2="88.70" y2="40.34"/>
  <line x1="98.94" y1="41.28" x2="97.48" y2="36.91"/>
  <line x1="107.58" y1="38.85" x2="106.55" y2="34.36"/>
  <line x1="116.42" y1="37.28" x2="115.84" y2="32.71"/>
  <line x1="125.37" y1="36.58" x2="125.23" y2="31.98"/>
  <line x1="134.34" y1="36.76" x2="134.66" y2="32.17"/>
  <line x1="143.25" y1="37.82" x2="144.02" y2="33.28"/>
  <line x1="152.02" y1="39.75" x2="153.23" y2="35.31"/>
  <line x1="160.55" y1="42.53" x2="162.19" y2="38.23"/>
  <line x1="168.77" y1="46.14" x2="170.83" y2="42.01"/>
  <line x1="176.60" y1="50.53" x2="179.05" y2="46.62"/>
  <line x1="183.96" y1="55.66" x2="186.78" y2="52.02"/>
  <line x1="190.78" y1="61.50" x2="193.94" y2="58.14"/>
  <line x1="197.00" y1="67.97" x2="200.47" y2="64.94"/>
  <line x1="202.55" y1="75.02" x2="206.30" y2="72.35"/>
  <line x1="207.38" y1="82.58" x2="211.38" y2="80.30"/>
  <line x1="211.45" y1="90.58" x2="215.66" y2="88.70"/>
  <line x1="214.72" y1="98.94" x2="219.09" y2="97.48"/>
  <line x1="217.15" y1="107.58" x2="221.64" y2="106.55"/>
  <line x1="218.72" y1="116.42" x2="223.29" y2="115.84"/>
  <line x1="219.42" y1="125.37" x2="224.02" y2="125.23"/>
  <line x1="219.24" y1="134.34" x2="223.83" y2="134.66"/>
</g>
<g data-ring="7" stroke="#5EEAFF" stroke-width="1.485" stroke-linecap="round">
  <line x1="229.49" y1="148.09" x2="234.01" y2="148.99"/>
  <line x1="227.03" y1="157.95" x2="231.44" y2="159.28"/>
  <line x1="223.62" y1="167.51" x2="227.87" y2="169.27"/>
  <line x1="219.28" y1="176.69" x2="223.35" y2="178.86"/>
  <line x1="214.07" y1="185.40" x2="217.90" y2="187.96"/>
  <line x1="208.03" y1="193.56" x2="211.59" y2="196.48"/>
  <line x1="201.22" y1="201.09" x2="204.48" y2="204.35"/>
  <line x1="193.70" y1="207.92" x2="196.63" y2="211.47"/>
  <line x1="185.55" y1="213.97" x2="188.12" y2="217.80"/>
  <line x1="176.85" y1="219.20" x2="179.02" y2="223.26"/>
  <line x1="167.67" y1="223.55" x2="169.44" y2="227.80"/>
  <line x1="158.12" y1="226.97" x2="159.46" y2="231.38"/>
  <line x1="148.27" y1="229.45" x2="149.17" y2="233.97"/>
  <line x1="138.23" y1="230.95" x2="138.69" y2="235.53"/>
  <line x1="128.09" y1="231.46" x2="128.09" y2="236.06"/>
  <line x1="117.95" y1="230.97" x2="117.50" y2="235.55"/>
  <line x1="107.91" y1="229.49" x2="107.01" y2="234.01"/>
  <line x1="98.05" y1="227.03" x2="96.72" y2="231.44"/>
  <line x1="88.49" y1="223.62" x2="86.73" y2="227.87"/>
  <line x1="79.31" y1="219.28" x2="77.14" y2="223.35"/>
  <line x1="70.60" y1="214.07" x2="68.04" y2="217.90"/>
  <line x1="62.44" y1="208.03" x2="59.52" y2="211.59"/>
  <line x1="54.91" y1="201.22" x2="51.65" y2="204.48"/>
  <line x1="48.08" y1="193.70" x2="44.53" y2="196.63"/>
  <line x1="42.03" y1="185.55" x2="38.20" y2="188.12"/>
  <line x1="36.80" y1="176.85" x2="32.74" y2="179.02"/>
  <line x1="32.45" y1="167.67" x2="28.20" y2="169.44"/>
  <line x1="29.03" y1="158.12" x2="24.62" y2="159.46"/>
  <line x1="26.55" y1="148.27" x2="22.03" y2="149.17"/>
  <line x1="25.05" y1="138.23" x2="20.47" y2="138.69"/>
  <line x1="24.54" y1="128.09" x2="19.94" y2="128.09"/>
  <line x1="25.03" y1="117.95" x2="20.45" y2="117.50"/>
  <line x1="26.51" y1="107.91" x2="21.99" y2="107.01"/>
  <line x1="28.97" y1="98.05" x2="24.56" y2="96.72"/>
  <line x1="32.38" y1="88.49" x2="28.13" y2="86.73"/>
  <line x1="36.72" y1="79.31" x2="32.65" y2="77.14"/>
  <line x1="41.93" y1="70.60" x2="38.10" y2="68.04"/>
  <line x1="47.97" y1="62.44" x2="44.41" y2="59.52"/>
  <line x1="54.78" y1="54.91" x2="51.52" y2="51.65"/>
  <line x1="62.30" y1="48.08" x2="59.37" y2="44.53"/>
  <line x1="70.45" y1="42.03" x2="67.88" y2="38.20"/>
  <line x1="79.15" y1="36.80" x2="76.98" y2="32.74"/>
  <line x1="88.33" y1="32.45" x2="86.56" y2="28.20"/>
  <line x1="97.88" y1="29.03" x2="96.54" y2="24.62"/>
  <line x1="107.73" y1="26.55" x2="106.83" y2="22.03"/>
  <line x1="117.77" y1="25.05" x2="117.31" y2="20.47"/>
  <line x1="127.91" y1="24.54" x2="127.91" y2="19.94"/>
  <line x1="138.05" y1="25.03" x2="138.50" y2="20.45"/>
  <line x1="148.09" y1="26.51" x2="148.99" y2="21.99"/>
  <line x1="157.95" y1="28.97" x2="159.28" y2="24.56"/>
  <line x1="167.51" y1="32.38" x2="169.27" y2="28.13"/>
  <line x1="176.69" y1="36.72" x2="178.86" y2="32.65"/>
  <line x1="185.40" y1="41.93" x2="187.96" y2="38.10"/>
  <line x1="193.56" y1="47.97" x2="196.48" y2="44.41"/>
  <line x1="201.09" y1="54.78" x2="204.35" y2="51.52"/>
  <line x1="207.92" y1="62.30" x2="211.47" y2="59.37"/>
  <line x1="213.97" y1="70.45" x2="217.80" y2="67.88"/>
  <line x1="219.20" y1="79.15" x2="223.26" y2="76.98"/>
  <line x1="223.55" y1="88.33" x2="227.80" y2="86.56"/>
  <line x1="226.97" y1="97.88" x2="231.38" y2="96.54"/>
  <line x1="229.45" y1="107.73" x2="233.97" y2="106.83"/>
  <line x1="230.95" y1="117.77" x2="235.53" y2="117.31"/>
  <line x1="231.46" y1="127.91" x2="236.06" y2="127.91"/>
  <line x1="230.97" y1="138.05" x2="235.55" y2="138.50"/>
</g>
<g data-ring="8" stroke="#5EEAFF" stroke-width="1.485" stroke-linecap="round">
  <line x1="240.59" y1="153.58" x2="245.08" y2="154.60"/>
  <line x1="237.54" y1="164.49" x2="241.91" y2="165.95"/>
  <line x1="233.43" y1="175.05" x2="237.64" y2="176.93"/>
  <line x1="228.31" y1="185.16" x2="232.32" y2="187.44"/>
  <line x1="222.23" y1="194.72" x2="225.99" y2="197.38"/>
  <line x1="215.23" y1="203.63" x2="218.72" y2="206.65"/>
  <line x1="207.40" y1="211.82" x2="210.57" y2="215.16"/>
  <line x1="198.80" y1="219.20" x2="201.63" y2="222.84"/>
  <line x1="189.52" y1="225.70" x2="191.98" y2="229.60"/>
  <line x1="179.65" y1="231.26" x2="181.71" y2="235.38"/>
  <line x1="169.28" y1="235.82" x2="170.93" y2="240.13"/>
  <line x1="158.51" y1="239.35" x2="159.73" y2="243.79"/>
  <line x1="147.45" y1="241.81" x2="148.23" y2="246.35"/>
  <line x1="136.20" y1="243.16" x2="136.53" y2="247.76"/>
  <line x1="124.88" y1="243.41" x2="124.75" y2="248.02"/>
  <line x1="113.58" y1="242.55" x2="113.00" y2="247.12"/>
  <line x1="102.42" y1="240.59" x2="101.40" y2="245.08"/>
  <line x1="91.51" y1="237.54" x2="90.05" y2="241.91"/>
  <line x1="80.95" y1="233.43" x2="79.07" y2="237.64"/>
  <line x1="70.84" y1="228.31" x2="68.56" y2="232.32"/>
  <line x1="61.28" y1="222.23" x2="58.62" y2="225.99"/>
  <line x1="52.37" y1="215.23" x2="49.35" y2="218.72"/>
  <line x1="44.18" y1="207.40" x2="40.84" y2="210.57"/>
  <line x1="36.80" y1="198.80" x2="33.16" y2="201.63"/>
  <line x1="30.30" y1="189.52" x2="26.40" y2="191.98"/>
  <line x1="24.74" y1="179.65" x2="20.62" y2="181.71"/>
  <line x1="20.18" y1="169.28" x2="15.87" y2="170.93"/>
  <line x1="16.65" y1="158.51" x2="12.21" y2="159.73"/>
  <line x1="14.19" y1="147.45" x2="9.65" y2="148.23"/>
  <line x1="12.84" y1="136.20" x2="8.24" y2="136.53"/>
  <line x1="12.59" y1="124.88" x2="7.98" y2="124.75"/>
  <line x1="13.45" y1="113.58" x2="8.88" y2="113.00"/>
  <line x1="15.41" y1="102.42" x2="10.92" y2="101.40"/>
  <line x1="18.46" y1="91.51" x2="14.09" y2="90.05"/>
  <line x1="22.57" y1="80.95" x2="18.36" y2="79.07"/>
  <line x1="27.69" y1="70.84" x2="23.68" y2="68.56"/>
  <line x1="33.77" y1="61.28" x2="30.01" y2="58.62"/>
  <line x1="40.77" y1="52.37" x2="37.28" y2="49.35"/>
  <line x1="48.60" y1="44.18" x2="45.43" y2="40.84"/>
  <line x1="57.20" y1="36.80" x2="54.37" y2="33.16"/>
  <line x1="66.48" y1="30.30" x2="64.02" y2="26.40"/>
  <line x1="76.35" y1="24.74" x2="74.29" y2="20.62"/>
  <line x1="86.72" y1="20.18" x2="85.07" y2="15.87"/>
  <line x1="97.49" y1="16.65" x2="96.27" y2="12.21"/>
  <line x1="108.55" y1="14.19" x2="107.77" y2="9.65"/>
  <line x1="119.80" y1="12.84" x2="119.47" y2="8.24"/>
  <line x1="131.12" y1="12.59" x2="131.25" y2="7.98"/>
  <line x1="142.42" y1="13.45" x2="143.00" y2="8.88"/>
  <line x1="153.58" y1="15.41" x2="154.60" y2="10.92"/>
  <line x1="164.49" y1="18.46" x2="165.95" y2="14.09"/>
  <line x1="175.05" y1="22.57" x2="176.93" y2="18.36"/>
  <line x1="185.16" y1="27.69" x2="187.44" y2="23.68"/>
  <line x1="194.72" y1="33.77" x2="197.38" y2="30.01"/>
  <line x1="203.63" y1="40.77" x2="206.65" y2="37.28"/>
  <line x1="211.82" y1="48.60" x2="215.16" y2="45.43"/>
  <line x1="219.20" y1="57.20" x2="222.84" y2="54.37"/>
  <line x1="225.70" y1="66.48" x2="229.60" y2="64.02"/>
  <line x1="231.26" y1="76.35" x2="235.38" y2="74.29"/>
  <line x1="235.82" y1="86.72" x2="240.13" y2="85.07"/>
  <line x1="239.35" y1="97.49" x2="243.79" y2="96.27"/>
  <line x1="241.81" y1="108.55" x2="246.35" y2="107.77"/>
  <line x1="243.16" y1="119.80" x2="247.76" y2="119.47"/>
  <line x1="243.41" y1="131.12" x2="248.02" y2="131.25"/>
  <line x1="242.55" y1="142.42" x2="247.12" y2="143.00"/>
</g>
<circle cx="128.0" cy="128.0" r="3.07" fill="#FFE13B"/>
</g>
  <text x="286.72" y="158.72"
        font-family="'Inter Tight','General Sans','Söhne','SF Pro Display',-apple-system,system-ui,sans-serif"
        font-size="107.5"
        font-weight="500"
        letter-spacing="2.15"
        fill="#B14AFF">phosphene</text>
</svg>