<svg xmlns="http://www.w3.org/2000/svg" viewBox="0 0 1024 1024" width="1024" height="1024">
<rect width="1024" height="1024" fill="#00061a"/>
<g data-ring="0" stroke="#FFFFFF" stroke-width="5.939" stroke-linecap="round">
  <line x1="589.82" y1="512.00" x2="608.26" y2="512.00"/>
  <line x1="589.45" y1="519.63" x2="607.79" y2="521.43"/>
  <line x1="588.33" y1="527.18" x2="606.41" y2="530.78"/>
  <line x1="586.47" y1="534.59" x2="604.11" y2="539.94"/>
  <line x1="583.90" y1="541.78" x2="600.93" y2="548.84"/>
  <line x1="580.63" y1="548.69" x2="596.89" y2="557.37"/>
  <line x1="576.71" y1="555.24" x2="592.03" y2="565.48"/>
  <line x1="572.16" y1="561.37" x2="586.41" y2="573.06"/>
  <line x1="567.03" y1="567.03" x2="580.06" y2="580.06"/>
  <line x1="561.37" y1="572.16" x2="573.06" y2="586.41"/>
  <line x1="555.24" y1="576.71" x2="565.48" y2="592.03"/>
  <line x1="548.69" y1="580.63" x2="557.37" y2="596.89"/>
  <line x1="541.78" y1="583.90" x2="548.84" y2="600.93"/>
  <line x1="534.59" y1="586.47" x2="539.94" y2="604.11"/>
  <line x1="527.18" y1="588.33" x2="530.78" y2="606.41"/>
  <line x1="519.63" y1="589.45" x2="521.43" y2="607.79"/>
  <line x1="512.00" y1="589.82" x2="512.00" y2="608.26"/>
  <line x1="504.37" y1="589.45" x2="502.57" y2="607.79"/>
  <line x1="496.82" y1="588.33" x2="493.22" y2="606.41"/>
  <line x1="489.41" y1="586.47" x2="484.06" y2="604.11"/>
  <line x1="482.22" y1="583.90" x2="475.16" y2="600.93"/>
  <line x1="475.31" y1="580.63" x2="466.63" y2="596.89"/>
  <line x1="468.76" y1="576.71" x2="458.52" y2="592.03"/>
  <line x1="462.63" y1="572.16" x2="450.94" y2="586.41"/>
  <line x1="456.97" y1="567.03" x2="443.94" y2="580.06"/>
  <line x1="451.84" y1="561.37" x2="437.59" y2="573.06"/>
  <line x1="447.29" y1="555.24" x2="431.97" y2="565.48"/>
  <line x1="443.37" y1="548.69" x2="427.11" y2="557.37"/>
  <line x1="440.10" y1="541.78" x2="423.07" y2="548.84"/>
  <line x1="437.53" y1="534.59" x2="419.89" y2="539.94"/>
  <line x1="435.67" y1="527.18" x2="417.59" y2="530.78"/>
  <line x1="434.55" y1="519.63" x2="416.21" y2="521.43"/>
  <line x1="434.18" y1="512.00" x2="415.74" y2="512.00"/>
  <line x1="434.55" y1="504.37" x2="416.21" y2="502.57"/>
  <line x1="435.67" y1="496.82" x2="417.59" y2="493.22"/>
  <line x1="437.53" y1="489.41" x2="419.89" y2="484.06"/>
  <line x1="440.10" y1="482.22" x2="423.07" y2="475.16"/>
  <line x1="443.37" y1="475.31" x2="427.11" y2="466.63"/>
  <line x1="447.29" y1="468.76" x2="431.97" y2="458.52"/>
  <line x1="451.84" y1="462.63" x2="437.59" y2="450.94"/>
  <line x1="456.97" y1="456.97" x2="443.94" y2="443.94"/>
  <line x1="462.63" y1="451.84" x2="450.94" y2="437.59"/>
  <line x1="468.76" y1="447.29" x2="458.52" y2="431.97"/>
  <line x1="475.31" y1="443.37" x2="466.63" y2="427.11"/>
  <line x1="482.22" y1="440.10" x2="475.16" y2="423.07"/>
  <line x1="489.41" y1="437.53" x2="484.06" y2="419.89"/>
  <line x1="496.82" y1="435.67" x2="493.22" y2="417.59"/>
  <line x1="504.37" y1="434.55" x2="502.57" y2="416.21"/>
  <line x1="512.00" y1="434.18" x2="512.00" y2="415.74"/>
  <line x1="519.63" y1="434.55" x2="521.43" y2="416.21"/>
  <line x1="527.18" y1="435.67" x2="530.78" y2="417.59"/>
  <line x1="534.59" y1="437.53" x2="539.94" y2="419.89"/>
  <line x1="541.78" y1="440.10" x2="548.84" y2="423.07"/>
  <line x1="548.69" y1="443.37" x2="557.37" y2="427.11"/>
  <line x1="555.24" y1="447.29" x2="565.48" y2="431.97"/>
  <line x1="561.37" y1="451.84" x2="573.06" y2="437.59"/>
  <line x1="567.03" y1="456.97" x2="580.06" y2="443.94"/>
  <line x1="572.16" y1="462.63" x2="586.41" y2="450.94"/>
  <line x1="576.71" y1="468.76" x2="592.03" y2="458.52"/>
  <line x1="580.63" y1="475.31" x2="596.89" y2="466.63"/>
  <line x1="583.90" y1="482.22" x2="600.93" y2="475.16"/>
  <line x1="586.47" y1="489.41" x2="604.11" y2="484.06"/>
  <line x1="588.33" y1="496.82" x2="606.41" y2="493.22"/>
  <line x1="589.45" y1="504.37" x2="607.79" y2="502.57"/>
</g>
<g data-ring="1" stroke="#FFFFFF" stroke-width="5.939" stroke-linecap="round">
  <line x1="637.77" y1="515.51" x2="656.20" y2="516.03"/>
  <line x1="636.82" y1="527.82" x2="655.11" y2="530.14"/>
  <line x1="634.67" y1="539.98" x2="652.64" y2="544.08"/>
  <line x1="631.34" y1="551.87" x2="648.82" y2="557.71"/>
  <line x1="626.86" y1="563.38" x2="643.68" y2="570.90"/>
  <line x1="621.27" y1="574.39" x2="637.27" y2="583.53"/>
  <line x1="614.63" y1="584.80" x2="629.66" y2="595.46"/>
  <line x1="607.00" y1="594.51" x2="620.91" y2="606.59"/>
  <line x1="598.45" y1="603.42" x2="611.12" y2="616.81"/>
  <line x1="589.08" y1="611.45" x2="600.37" y2="626.02"/>
  <line x1="578.96" y1="618.53" x2="588.76" y2="634.14"/>
  <line x1="568.19" y1="624.58" x2="576.42" y2="641.07"/>
  <line x1="556.89" y1="629.55" x2="563.46" y2="646.76"/>
  <line x1="545.15" y1="633.38" x2="550.00" y2="651.16"/>
  <line x1="533.09" y1="636.04" x2="536.18" y2="654.21"/>
  <line x1="520.83" y1="637.51" x2="522.13" y2="655.90"/>
  <line x1="508.49" y1="637.77" x2="507.97" y2="656.20"/>
  <line x1="496.18" y1="636.82" x2="493.86" y2="655.11"/>
  <line x1="484.02" y1="634.67" x2="479.92" y2="652.64"/>
  <line x1="472.13" y1="631.34" x2="466.29" y2="648.82"/>
  <line x1="460.62" y1="626.86" x2="453.10" y2="643.68"/>
  <line x1="449.61" y1="621.27" x2="440.47" y2="637.27"/>
  <line x1="439.20" y1="614.63" x2="428.54" y2="629.66"/>
  <line x1="429.49" y1="607.00" x2="417.41" y2="620.91"/>
  <line x1="420.58" y1="598.45" x2="407.19" y2="611.12"/>
  <line x1="412.55" y1="589.08" x2="397.98" y2="600.37"/>
  <line x1="405.47" y1="578.96" x2="389.86" y2="588.76"/>
  <line x1="399.42" y1="568.19" x2="382.93" y2="576.42"/>
  <line x1="394.45" y1="556.89" x2="377.24" y2="563.46"/>
  <line x1="390.62" y1="545.15" x2="372.84" y2="550.00"/>
  <line x1="387.96" y1="533.09" x2="369.79" y2="536.18"/>
  <line x1="386.49" y1="520.83" x2="368.10" y2="522.13"/>
  <line x1="386.23" y1="508.49" x2="367.80" y2="507.97"/>
  <line x1="387.18" y1="496.18" x2="368.89" y2="493.86"/>
  <line x1="389.33" y1="484.02" x2="371.36" y2="479.92"/>
  <line x1="392.66" y1="472.13" x2="375.18" y2="466.29"/>
  <line x1="397.14" y1="460.62" x2="380.32" y2="453.10"/>
  <line x1="402.73" y1="449.61" x2="386.73" y2="440.47"/>
  <line x1="409.37" y1="439.20" x2="394.34" y2="428.54"/>
  <line x1="417.00" y1="429.49" x2="403.09" y2="417.41"/>
  <line x1="425.55" y1="420.58" x2="412.88" y2="407.19"/>
  <line x1="434.92" y1="412.55" x2="423.63" y2="397.98"/>
  <line x1="445.04" y1="405.47" x2="435.24" y2="389.86"/>
  <line x1="455.81" y1="399.42" x2="447.58" y2="382.93"/>
  <line x1="467.11" y1="394.45" x2="460.54" y2="377.24"/>
  <line x1="478.85" y1="390.62" x2="474.00" y2="372.84"/>
  <line x1="490.91" y1="387.96" x2="487.82" y2="369.79"/>
  <line x1="503.17" y1="386.49" x2="501.87" y2="368.10"/>
  <line x1="515.51" y1="386.23" x2="516.03" y2="367.80"/>
  <line x1="527.82" y1="387.18" x2="530.14" y2="368.89"/>
  <line x1="539.98" y1="389.33" x2="544.08" y2="371.36"/>
  <line x1="551.87" y1="392.66" x2="557.71" y2="375.18"/>
  <line x1="563.38" y1="397.14" x2="570.90" y2="380.32"/>
  <line x1="574.39" y1="402.73" x2="583.53" y2="386.73"/>
  <line x1="584.80" y1="409.37" x2="595.46" y2="394.34"/>
  <line x1="594.51" y1="417.00" x2="606.59" y2="403.09"/>
  <line x1="603.42" y1="425.55" x2="616.81" y2="412.88"/>
  <line x1="611.45" y1="434.92" x2="626.02" y2="423.63"/>
  <line x1="618.53" y1="445.04" x2="634.14" y2="435.24"/>
  <line x1="624.58" y1="455.81" x2="641.07" y2="447.58"/>
  <line x1="629.55" y1="467.11" x2="646.76" y2="460.54"/>
  <line x1="633.38" y1="478.85" x2="651.16" y2="474.00"/>
  <line x1="636.04" y1="490.91" x2="654.21" y2="487.82"/>
  <line x1="637.51" y1="503.17" x2="655.90" y2="501.87"/>
</g>
<g data-ring="2" stroke="#FFFFFF" stroke-width="5.939" stroke-linecap="round">
  <line x1="685.55" y1="521.70" x2="703.96" y2="522.73"/>
  <line x1="683.77" y1="538.67" x2="701.98" y2="541.50"/>
  <line x1="680.33" y1="555.38" x2="698.17" y2="559.97"/>
  <line x1="675.26" y1="571.67" x2="692.58" y2="577.99"/>
  <line x1="668.63" y1="587.38" x2="685.24" y2="595.37"/>
  <line x1="660.49" y1="602.37" x2="676.23" y2="611.95"/>
  <line x1="650.91" y1="616.49" x2="665.64" y2="627.57"/>
  <line x1="640.00" y1="629.60" x2="653.58" y2="642.07"/>
  <line x1="627.86" y1="641.58" x2="640.14" y2="655.32"/>
  <line x1="614.60" y1="652.31" x2="625.48" y2="667.19"/>
  <line x1="600.35" y1="661.69" x2="609.72" y2="677.57"/>
  <line x1="585.25" y1="669.63" x2="593.02" y2="686.35"/>
  <line x1="569.45" y1="676.06" x2="575.54" y2="693.45"/>
  <line x1="553.09" y1="680.90" x2="557.45" y2="698.81"/>
  <line x1="536.34" y1="684.11" x2="538.92" y2="702.36"/>
  <line x1="519.35" y1="685.67" x2="520.13" y2="704.08"/>
  <line x1="502.30" y1="685.55" x2="501.27" y2="703.96"/>
  <line x1="485.33" y1="683.77" x2="482.50" y2="701.98"/>
  <line x1="468.62" y1="680.33" x2="464.03" y2="698.17"/>
  <line x1="452.33" y1="675.26" x2="446.01" y2="692.58"/>
  <line x1="436.62" y1="668.63" x2="428.63" y2="685.24"/>
  <line x1="421.63" y1="660.49" x2="412.05" y2="676.23"/>
  <line x1="407.51" y1="650.91" x2="396.43" y2="665.64"/>
  <line x1="394.40" y1="640.00" x2="381.93" y2="653.58"/>
  <line x1="382.42" y1="627.86" x2="368.68" y2="640.14"/>
  <line x1="371.69" y1="614.60" x2="356.81" y2="625.48"/>
  <line x1="362.31" y1="600.35" x2="346.43" y2="609.72"/>
  <line x1="354.37" y1="585.25" x2="337.65" y2="593.02"/>
  <line x1="347.94" y1="569.45" x2="330.55" y2="575.54"/>
  <line x1="343.10" y1="553.09" x2="325.19" y2="557.45"/>
  <line x1="339.89" y1="536.34" x2="321.64" y2="538.92"/>
  <line x1="338.33" y1="519.35" x2="319.92" y2="520.13"/>
  <line x1="338.45" y1="502.30" x2="320.04" y2="501.27"/>
  <line x1="340.23" y1="485.33" x2="322.02" y2="482.50"/>
  <line x1="343.67" y1="468.62" x2="325.83" y2="464.03"/>
  <line x1="348.74" y1="452.33" x2="331.42" y2="446.01"/>
  <line x1="355.37" y1="436.62" x2="338.76" y2="428.63"/>
  <line x1="363.51" y1="421.63" x2="347.77" y2="412.05"/>
  <line x1="373.09" y1="407.51" x2="358.36" y2="396.43"/>
  <line x1="384.00" y1="394.40" x2="370.42" y2="381.93"/>
  <line x1="396.14" y1="382.42" x2="383.86" y2="368.68"/>
  <line x1="409.40" y1="371.69" x2="398.52" y2="356.81"/>
  <line x1="423.65" y1="362.31" x2="414.28" y2="346.43"/>
  <line x1="438.75" y1="354.37" x2="430.98" y2="337.65"/>
  <line x1="454.55" y1="347.94" x2="448.46" y2="330.55"/>
  <line x1="470.91" y1="343.10" x2="466.55" y2="325.19"/>
  <line x1="487.66" y1="339.89" x2="485.08" y2="321.64"/>
  <line x1="504.65" y1="338.33" x2="503.87" y2="319.92"/>
  <line x1="521.70" y1="338.45" x2="522.73" y2="320.04"/>
  <line x1="538.67" y1="340.23" x2="541.50" y2="322.02"/>
  <line x1="555.38" y1="343.67" x2="559.97" y2="325.83"/>
  <line x1="571.67" y1="348.74" x2="577.99" y2="331.42"/>
  <line x1="587.38" y1="355.37" x2="595.37" y2="338.76"/>
  <line x1="602.37" y1="363.51" x2="611.95" y2="347.77"/>
  <line x1="616.49" y1="373.09" x2="627.57" y2="358.36"/>
  <line x1="629.60" y1="384.00" x2="642.07" y2="370.42"/>
  <line x1="641.58" y1="396.14" x2="655.32" y2="383.86"/>
  <line x1="652.31" y1="409.40" x2="667.19" y2="398.52"/>
  <line x1="661.69" y1="423.65" x2="677.57" y2="414.28"/>
  <line x1="669.63" y1="438.75" x2="686.35" y2="430.98"/>
  <line x1="676.06" y1="454.55" x2="693.45" y2="448.46"/>
  <line x1="680.90" y1="470.91" x2="698.81" y2="466.55"/>
  <line x1="684.11" y1="487.66" x2="702.36" y2="485.08"/>
  <line x1="685.67" y1="504.65" x2="704.08" y2="503.87"/>
</g>
<g data-ring="3" stroke="#FFFFFF" stroke-width="5.939" stroke-linecap="round">
  <line x1="733.05" y1="530.56" x2="751.41" y2="532.10"/>
  <line x1="730.16" y1="552.14" x2="748.29" y2="555.47"/>
  <line x1="725.18" y1="573.33" x2="742.89" y2="578.43"/>
  <line x1="718.14" y1="593.93" x2="735.27" y2="600.74"/>
  <line x1="709.12" y1="613.74" x2="725.50" y2="622.19"/>
  <line x1="698.20" y1="632.57" x2="713.67" y2="642.59"/>
  <line x1="685.48" y1="650.24" x2="699.90" y2="661.73"/>
  <line x1="671.10" y1="666.58" x2="684.32" y2="679.42"/>
  <line x1="655.18" y1="681.43" x2="667.08" y2="695.51"/>
  <line x1="637.88" y1="694.65" x2="648.34" y2="709.82"/>
  <line x1="619.37" y1="706.11" x2="628.30" y2="722.23"/>
  <line x1="599.83" y1="715.70" x2="607.13" y2="732.62"/>
  <line x1="579.44" y1="723.32" x2="585.05" y2="740.88"/>
  <line x1="558.40" y1="728.92" x2="562.26" y2="746.94"/>
  <line x1="536.92" y1="732.42" x2="538.99" y2="750.74"/>
  <line x1="515.19" y1="733.80" x2="515.46" y2="752.23"/>
  <line x1="493.44" y1="733.05" x2="491.90" y2="751.41"/>
  <line x1="471.86" y1="730.16" x2="468.53" y2="748.29"/>
  <line x1="450.67" y1="725.18" x2="445.57" y2="742.89"/>
  <line x1="430.07" y1="718.14" x2="423.26" y2="735.27"/>
  <line x1="410.26" y1="709.12" x2="401.81" y2="725.50"/>
  <line x1="391.43" y1="698.20" x2="381.41" y2="713.67"/>
  <line x1="373.76" y1="685.48" x2="362.27" y2="699.90"/>
  <line x1="357.42" y1="671.10" x2="344.58" y2="684.32"/>
  <line x1="342.57" y1="655.18" x2="328.49" y2="667.08"/>
  <line x1="329.35" y1="637.88" x2="314.18" y2="648.34"/>
  <line x1="317.89" y1="619.37" x2="301.77" y2="628.30"/>
  <line x1="308.30" y1="599.83" x2="291.38" y2="607.13"/>
  <line x1="300.68" y1="579.44" x2="283.12" y2="585.05"/>
  <line x1="295.08" y1="558.40" x2="277.06" y2="562.26"/>
  <line x1="291.58" y1="536.92" x2="273.26" y2="538.99"/>
  <line x1="290.20" y1="515.19" x2="271.77" y2="515.46"/>
  <line x1="290.95" y1="493.44" x2="272.59" y2="491.90"/>
  <line x1="293.84" y1="471.86" x2="275.71" y2="468.53"/>
  <line x1="298.82" y1="450.67" x2="281.11" y2="445.57"/>
  <line x1="305.86" y1="430.07" x2="288.73" y2="423.26"/>
  <line x1="314.88" y1="410.26" x2="298.50" y2="401.81"/>
  <line x1="325.80" y1="391.43" x2="310.33" y2="381.41"/>
  <line x1="338.52" y1="373.76" x2="324.10" y2="362.27"/>
  <line x1="352.90" y1="357.42" x2="339.68" y2="344.58"/>
  <line x1="368.82" y1="342.57" x2="356.92" y2="328.49"/>
  <line x1="386.12" y1="329.35" x2="375.66" y2="314.18"/>
  <line x1="404.63" y1="317.89" x2="395.70" y2="301.77"/>
  <line x1="424.17" y1="308.30" x2="416.87" y2="291.38"/>
  <line x1="444.56" y1="300.68" x2="438.95" y2="283.12"/>
  <line x1="465.60" y1="295.08" x2="461.74" y2="277.06"/>
  <line x1="487.08" y1="291.58" x2="485.01" y2="273.26"/>
  <line x1="508.81" y1="290.20" x2="508.54" y2="271.77"/>
  <line x1="530.56" y1="290.95" x2="532.10" y2="272.59"/>
  <line x1="552.14" y1="293.84" x2="555.47" y2="275.71"/>
  <line x1="573.33" y1="298.82" x2="578.43" y2="281.11"/>
  <line x1="593.93" y1="305.86" x2="600.74" y2="288.73"/>
  <line x1="613.74" y1="314.88" x2="622.19" y2="298.50"/>
  <line x1="632.57" y1="325.80" x2="642.59" y2="310.33"/>
  <line x1="650.24" y1="338.52" x2="661.73" y2="324.10"/>
  <line x1="666.58" y1="352.90" x2="679.42" y2="339.68"/>
  <line x1="681.43" y1="368.82" x2="695.51" y2="356.92"/>
  <line x1="694.65" y1="386.12" x2="709.82" y2="375.66"/>
  <line x1="706.11" y1="404.63" x2="722.23" y2="395.70"/>
  <line x1="715.70" y1="424.17" x2="732.62" y2="416.87"/>
  <line x1="723.32" y1="444.56" x2="740.88" y2="438.95"/>
  <line x1="728.92" y1="465.60" x2="746.94" y2="461.74"/>
  <line x1="732.42" y1="487.08" x2="750.74" y2="485.01"/>
  <line x1="733.80" y1="508.81" x2="752.23" y2="508.54"/>
</g>
<g data-ring="4" stroke="#FFFFFF" stroke-width="5.939" stroke-linecap="round">
  <line x1="780.14" y1="542.08" x2="798.46" y2="544.13"/>
  <line x1="775.90" y1="568.21" x2="793.93" y2="572.05"/>
  <line x1="769.12" y1="593.81" x2="786.69" y2="599.40"/>
  <line x1="759.87" y1="618.62" x2="776.80" y2="625.90"/>
  <line x1="748.22" y1="642.40" x2="764.36" y2="651.31"/>
  <line x1="734.30" y1="664.93" x2="749.49" y2="675.37"/>
  <line x1="718.24" y1="685.98" x2="732.33" y2="697.86"/>
  <line x1="700.20" y1="705.36" x2="713.05" y2="718.57"/>
  <line x1="680.34" y1="722.87" x2="691.84" y2="737.28"/>
  <line x1="658.86" y1="738.36" x2="668.89" y2="753.82"/>
  <line x1="635.96" y1="751.66" x2="644.43" y2="768.03"/>
  <line x1="611.88" y1="762.66" x2="618.70" y2="779.78"/>
  <line x1="586.83" y1="771.24" x2="591.94" y2="788.95"/>
  <line x1="561.06" y1="777.33" x2="564.41" y2="795.45"/>
  <line x1="534.81" y1="780.86" x2="536.37" y2="799.22"/>
  <line x1="508.35" y1="781.80" x2="508.10" y2="800.23"/>
  <line x1="481.92" y1="780.14" x2="479.87" y2="798.46"/>
  <line x1="455.79" y1="775.90" x2="451.95" y2="793.93"/>
  <line x1="430.19" y1="769.12" x2="424.60" y2="786.69"/>
  <line x1="405.38" y1="759.87" x2="398.10" y2="776.80"/>
  <line x1="381.60" y1="748.22" x2="372.69" y2="764.36"/>
  <line x1="359.07" y1="734.30" x2="348.63" y2="749.49"/>
  <line x1="338.02" y1="718.24" x2="326.14" y2="732.33"/>
  <line x1="318.64" y1="700.20" x2="305.43" y2="713.05"/>
  <line x1="301.13" y1="680.34" x2="286.72" y2="691.84"/>
  <line x1="285.64" y1="658.86" x2="270.18" y2="668.89"/>
  <line x1="272.34" y1="635.96" x2="255.97" y2="644.43"/>
  <line x1="261.34" y1="611.88" x2="244.22" y2="618.70"/>
  <line x1="252.76" y1="586.83" x2="235.05" y2="591.94"/>
  <line x1="246.67" y1="561.06" x2="228.55" y2="564.41"/>
  <line x1="243.14" y1="534.81" x2="224.78" y2="536.37"/>
  <line x1="242.20" y1="508.35" x2="223.77" y2="508.10"/>
  <line x1="243.86" y1="481.92" x2="225.54" y2="479.87"/>
  <line x1="248.10" y1="455.79" x2="230.07" y2="451.95"/>
  <line x1="254.88" y1="430.19" x2="237.31" y2="424.60"/>
  <line x1="264.13" y1="405.38" x2="247.20" y2="398.10"/>
  <line x1="275.78" y1="381.60" x2="259.64" y2="372.69"/>
  <line x1="289.70" y1="359.07" x2="274.51" y2="348.63"/>
  <line x1="305.76" y1="338.02" x2="291.67" y2="326.14"/>
  <line x1="323.80" y1="318.64" x2="310.95" y2="305.43"/>
  <line x1="343.66" y1="301.13" x2="332.16" y2="286.72"/>
  <line x1="365.14" y1="285.64" x2="355.11" y2="270.18"/>
  <line x1="388.04" y1="272.34" x2="379.57" y2="255.97"/>
  <line x1="412.12" y1="261.34" x2="405.30" y2="244.22"/>
  <line x1="437.17" y1="252.76" x2="432.06" y2="235.05"/>
  <line x1="462.94" y1="246.67" x2="459.59" y2="228.55"/>
  <line x1="489.19" y1="243.14" x2="487.63" y2="224.78"/>
  <line x1="515.65" y1="242.20" x2="515.90" y2="223.77"/>
  <line x1="542.08" y1="243.86" x2="544.13" y2="225.54"/>
  <line x1="568.21" y1="248.10" x2="572.05" y2="230.07"/>
  <line x1="593.81" y1="254.88" x2="599.40" y2="237.31"/>
  <line x1="618.62" y1="264.13" x2="625.90" y2="247.20"/>
  <line x1="642.40" y1="275.78" x2="651.31" y2="259.64"/>
  <line x1="664.93" y1="289.70" x2="675.37" y2="274.51"/>
  <line x1="685.98" y1="305.76" x2="697.86" y2="291.67"/>
  <line x1="705.36" y1="323.80" x2="718.57" y2="310.95"/>
  <line x1="722.87" y1="343.66" x2="737.28" y2="332.16"/>
  <line x1="738.36" y1="365.14" x2="753.82" y2="355.11"/>
  <line x1="751.66" y1="388.04" x2="768.03" y2="379.57"/>
  <line x1="762.66" y1="412.12" x2="779.78" y2="405.30"/>
  <line x1="771.24" y1="437.17" x2="788.95" y2="432.06"/>
  <line x1="777.33" y1="462.94" x2="795.45" y2="459.59"/>
  <line x1="780.86" y1="489.19" x2="799.22" y2="487.63"/>
  <line x1="781.80" y1="515.65" x2="800.23" y2="515.90"/>
</g>
<g data-ring="5" stroke="#FFFFFF" stroke-width="5.939" stroke-linecap="round">
  <line x1="826.73" y1="556.23" x2="844.98" y2="558.80"/>
  <line x1="820.88" y1="586.87" x2="838.79" y2="591.21"/>
  <line x1="812.05" y1="616.78" x2="829.46" y2="622.86"/>
  <line x1="800.34" y1="645.69" x2="817.06" y2="653.44"/>
  <line x1="785.85" y1="673.31" x2="801.73" y2="682.66"/>
  <line x1="768.72" y1="699.37" x2="783.60" y2="710.24"/>
  <line x1="749.11" y1="723.63" x2="762.87" y2="735.91"/>
  <line x1="727.23" y1="745.86" x2="739.71" y2="759.42"/>
  <line x1="703.27" y1="765.83" x2="714.36" y2="780.55"/>
  <line x1="677.47" y1="783.35" x2="687.07" y2="799.09"/>
  <line x1="650.08" y1="798.26" x2="658.08" y2="814.87"/>
  <line x1="621.35" y1="810.42" x2="627.70" y2="827.73"/>
  <line x1="591.58" y1="819.70" x2="596.19" y2="837.55"/>
  <line x1="561.03" y1="826.02" x2="563.88" y2="844.23"/>
  <line x1="530.02" y1="829.31" x2="531.06" y2="847.72"/>
  <line x1="498.83" y1="829.55" x2="498.07" y2="847.97"/>
  <line x1="467.77" y1="826.73" x2="465.20" y2="844.98"/>
  <line x1="437.13" y1="820.88" x2="432.79" y2="838.79"/>
  <line x1="407.22" y1="812.05" x2="401.14" y2="829.46"/>
  <line x1="378.31" y1="800.34" x2="370.56" y2="817.06"/>
  <line x1="350.69" y1="785.85" x2="341.34" y2="801.73"/>
  <line x1="324.63" y1="768.72" x2="313.76" y2="783.60"/>
  <line x1="300.37" y1="749.11" x2="288.09" y2="762.87"/>
  <line x1="278.14" y1="727.23" x2="264.58" y2="739.71"/>
  <line x1="258.17" y1="703.27" x2="243.45" y2="714.36"/>
  <line x1="240.65" y1="677.47" x2="224.91" y2="687.07"/>
  <line x1="225.74" y1="650.08" x2="209.13" y2="658.08"/>
  <line x1="213.58" y1="621.35" x2="196.27" y2="627.70"/>
  <line x1="204.30" y1="591.58" x2="186.45" y2="596.19"/>
  <line x1="197.98" y1="561.03" x2="179.77" y2="563.88"/>
  <line x1="194.69" y1="530.02" x2="176.28" y2="531.06"/>
  <line x1="194.45" y1="498.83" x2="176.03" y2="498.07"/>
  <line x1="197.27" y1="467.77" x2="179.02" y2="465.20"/>
  <line x1="203.12" y1="437.13" x2="185.21" y2="432.79"/>
  <line x1="211.95" y1="407.22" x2="194.54" y2="401.14"/>
  <line x1="223.66" y1="378.31" x2="206.94" y2="370.56"/>
  <line x1="238.15" y1="350.69" x2="222.27" y2="341.34"/>
  <line x1="255.28" y1="324.63" x2="240.40" y2="313.76"/>
  <line x1="274.89" y1="300.37" x2="261.13" y2="288.09"/>
  <line x1="296.77" y1="278.14" x2="284.29" y2="264.58"/>
  <line x1="320.73" y1="258.17" x2="309.64" y2="243.45"/>
  <line x1="346.53" y1="240.65" x2="336.93" y2="224.91"/>
  <line x1="373.92" y1="225.74" x2="365.92" y2="209.13"/>
  <line x1="402.65" y1="213.58" x2="396.30" y2="196.27"/>
  <line x1="432.42" y1="204.30" x2="427.81" y2="186.45"/>
  <line x1="462.97" y1="197.98" x2="460.12" y2="179.77"/>
  <line x1="493.98" y1="194.69" x2="492.94" y2="176.28"/>
  <line x1="525.17" y1="194.45" x2="525.93" y2="176.03"/>
  <line x1="556.23" y1="197.27" x2="558.80" y2="179.02"/>
  <line x1="586.87" y1="203.12" x2="591.21" y2="185.21"/>
  <line x1="616.78" y1="211.95" x2="622.86" y2="194.54"/>
  <line x1="645.69" y1="223.66" x2="653.44" y2="206.94"/>
  <line x1="673.31" y1="238.15" x2="682.66" y2="222.27"/>
  <line x1="699.37" y1="255.28" x2="710.24" y2="240.40"/>
  <line x1="723.63" y1="274.89" x2="735.91" y2="261.13"/>
  <line x1="745.86" y1="296.77" x2="759.42" y2="284.29"/>
  <line x1="765.83" y1="320.73" x2="780.55" y2="309.64"/>
  <line x1="783.35" y1="346.53" x2="799.09" y2="336.93"/>
  <line x1="798.26" y1="373.92" x2="814.87" y2="365.92"/>
  <line x1="810.42" y1="402.65" x2="827.73" y2="396.30"/>
  <line x1="819.70" y1="432.42" x2="837.55" y2="427.81"/>
  <line x1="826.02" y1="462.97" x2="844.23" y2="460.12"/>
  <line x1="829.31" y1="493.98" x2="847.72" y2="492.94"/>
  <line x1="829.55" y1="525.17" x2="847.97" y2="525.93"/>
</g>
<g data-ring="6" stroke="#FFFFFF" stroke-width="5.939" stroke-linecap="round">
  <line x1="872.70" y1="573.01" x2="890.87" y2="576.08"/>
  <line x1="864.98" y1="608.07" x2="882.77" y2="612.91"/>
  <line x1="853.87" y1="642.21" x2="871.09" y2="648.77"/>
  <line x1="839.46" y1="675.09" x2="855.96" y2="683.30"/>
  <line x1="821.90" y1="706.40" x2="837.51" y2="716.19"/>
  <line x1="801.35" y1="735.84" x2="815.93" y2="747.12"/>
  <line x1="778.02" y1="763.12" x2="791.42" y2="775.77"/>
  <line x1="752.12" y1="787.99" x2="764.22" y2="801.89"/>
  <line x1="723.91" y1="810.19" x2="734.59" y2="825.22"/>
  <line x1="693.67" y1="829.53" x2="702.82" y2="845.53"/>
  <line x1="661.67" y1="845.81" x2="669.21" y2="862.62"/>
  <line x1="628.23" y1="858.87" x2="634.09" y2="876.35"/>
  <line x1="593.67" y1="868.59" x2="597.79" y2="886.56"/>
  <line x1="558.32" y1="874.88" x2="560.66" y2="893.16"/>
  <line x1="522.53" y1="877.67" x2="523.06" y2="896.10"/>
  <line x1="486.64" y1="876.94" x2="485.36" y2="895.33"/>
  <line x1="450.99" y1="872.70" x2="447.92" y2="890.87"/>
  <line x1="415.93" y1="864.98" x2="411.09" y2="882.77"/>
  <line x1="381.79" y1="853.87" x2="375.23" y2="871.09"/>
  <line x1="348.91" y1="839.46" x2="340.70" y2="855.96"/>
  <line x1="317.60" y1="821.90" x2="307.81" y2="837.51"/>
  <line x1="288.16" y1="801.35" x2="276.88" y2="815.93"/>
  <line x1="260.88" y1="778.02" x2="248.23" y2="791.42"/>
  <line x1="236.01" y1="752.12" x2="222.11" y2="764.22"/>
  <line x1="213.81" y1="723.91" x2="198.78" y2="734.59"/>
  <line x1="194.47" y1="693.67" x2="178.47" y2="702.82"/>
  <line x1="178.19" y1="661.67" x2="161.38" y2="669.21"/>
  <line x1="165.13" y1="628.23" x2="147.65" y2="634.09"/>
  <line x1="155.41" y1="593.67" x2="137.44" y2="597.79"/>
  <line x1="149.12" y1="558.32" x2="130.84" y2="560.66"/>
  <line x1="146.33" y1="522.53" x2="127.90" y2="523.06"/>
  <line x1="147.06" y1="486.64" x2="128.67" y2="485.36"/>
  <line x1="151.30" y1="450.99" x2="133.13" y2="447.92"/>
  <line x1="159.02" y1="415.93" x2="141.23" y2="411.09"/>
  <line x1="170.13" y1="381.79" x2="152.91" y2="375.23"/>
  <line x1="184.54" y1="348.91" x2="168.04" y2="340.70"/>
  <line x1="202.10" y1="317.60" x2="186.49" y2="307.81"/>
  <line x1="222.65" y1="288.16" x2="208.07" y2="276.88"/>
  <line x1="245.98" y1="260.88" x2="232.58" y2="248.23"/>
  <line x1="271.88" y1="236.01" x2="259.78" y2="222.11"/>
  <line x1="300.09" y1="213.81" x2="289.41" y2="198.78"/>
  <line x1="330.33" y1="194.47" x2="321.18" y2="178.47"/>
  <line x1="362.33" y1="178.19" x2="354.79" y2="161.38"/>
  <line x1="395.77" y1="165.13" x2="389.91" y2="147.65"/>
  <line x1="430.33" y1="155.41" x2="426.21" y2="137.44"/>
  <line x1="465.68" y1="149.12" x2="463.34" y2="130.84"/>
  <line x1="501.47" y1="146.33" x2="500.94" y2="127.90"/>
  <line x1="537.36" y1="147.06" x2="538.64" y2="128.67"/>
  <line x1="573.01" y1="151.30" x2="576.08" y2="133.13"/>
  <line x1="608.07" y1="159.02" x2="612.91" y2="141.23"/>
  <line x1="642.21" y1="170.13" x2="648.77" y2="152.91"/>
  <line x1="675.09" y1="184.54" x2="683.30" y2="168.04"/>
  <line x1="706.40" y1="202.10" x2="716.19" y2="186.49"/>
  <line x1="735.84" y1="222.65" x2="747.12" y2="208.07"/>
  <line x1="763.12" y1="245.98" x2="775.77" y2="232.58"/>
  <line x1="787.99" y1="271.88" x2="801.89" y2="259.78"/>
  <line x1="810.19" y1="300.09" x2="825.22" y2="289.41"/>
  <line x1="829.53" y1="330.33" x2="845.53" y2="321.18"/>
  <line x1="845.81" y1="362.33" x2="862.62" y2="354.79"/>
  <line x1="858.87" y1="395.77" x2="876.35" y2="389.91"/>
  <line x1="868.59" y1="430.33" x2="886.56" y2="426.21"/>
  <line x1="874.88" y1="465.68" x2="893.16" y2="463.34"/>
  <line x1="877.67" y1="501.47" x2="896.10" y2="500.94"/>
  <line x1="876.94" y1="537.36" x2="895.33" y2="538.64"/>
</g>
<g data-ring="7" stroke="#FFFFFF" stroke-width="5.939" stroke-linecap="round">
  <line x1="917.94" y1="592.38" x2="936.02" y2="595.96"/>
  <line x1="908.11" y1="631.78" x2="925.75" y2="637.12"/>
  <line x1="894.46" y1="670.03" x2="911.50" y2="677.07"/>
  <line x1="877.13" y1="706.76" x2="893.39" y2="715.43"/>
  <line x1="856.28" y1="741.61" x2="871.62" y2="751.83"/>
  <line x1="832.12" y1="774.25" x2="846.38" y2="785.93"/>
  <line x1="804.87" y1="804.36" x2="817.92" y2="817.38"/>
  <line x1="774.81" y1="831.66" x2="786.51" y2="845.90"/>
  <line x1="742.21" y1="855.88" x2="752.46" y2="871.20"/>
  <line x1="707.39" y1="876.79" x2="716.10" y2="893.04"/>
  <line x1="670.70" y1="894.19" x2="677.77" y2="911.21"/>
  <line x1="632.47" y1="907.90" x2="637.84" y2="925.53"/>
  <line x1="593.09" y1="917.80" x2="596.70" y2="935.88"/>
  <line x1="552.92" y1="923.80" x2="554.74" y2="942.14"/>
  <line x1="512.36" y1="925.82" x2="512.38" y2="944.26"/>
  <line x1="471.80" y1="923.87" x2="470.01" y2="942.21"/>
  <line x1="431.62" y1="917.94" x2="428.04" y2="936.02"/>
  <line x1="392.22" y1="908.11" x2="386.88" y2="925.75"/>
  <line x1="353.97" y1="894.46" x2="346.93" y2="911.50"/>
  <line x1="317.24" y1="877.13" x2="308.57" y2="893.39"/>
  <line x1="282.39" y1="856.28" x2="272.17" y2="871.62"/>
  <line x1="249.75" y1="832.12" x2="238.07" y2="846.38"/>
  <line x1="219.64" y1="804.87" x2="206.62" y2="817.92"/>
  <line x1="192.34" y1="774.81" x2="178.10" y2="786.51"/>
  <line x1="168.12" y1="742.21" x2="152.80" y2="752.46"/>
  <line x1="147.21" y1="707.39" x2="130.96" y2="716.10"/>
  <line x1="129.81" y1="670.70" x2="112.79" y2="677.77"/>
  <line x1="116.10" y1="632.47" x2="98.47" y2="637.84"/>
  <line x1="106.20" y1="593.09" x2="88.12" y2="596.70"/>
  <line x1="100.20" y1="552.92" x2="81.86" y2="554.74"/>
  <line x1="98.18" y1="512.36" x2="79.74" y2="512.38"/>
  <line x1="100.13" y1="471.80" x2="81.79" y2="470.01"/>
  <line x1="106.06" y1="431.62" x2="87.98" y2="428.04"/>
  <line x1="115.89" y1="392.22" x2="98.25" y2="386.88"/>
  <line x1="129.54" y1="353.97" x2="112.50" y2="346.93"/>
  <line x1="146.87" y1="317.24" x2="130.61" y2="308.57"/>
  <line x1="167.72" y1="282.39" x2="152.38" y2="272.17"/>
  <line x1="191.88" y1="249.75" x2="177.62" y2="238.07"/>
  <line x1="219.13" y1="219.64" x2="206.08" y2="206.62"/>
  <line x1="249.19" y1="192.34" x2="237.49" y2="178.10"/>
  <line x1="281.79" y1="168.12" x2="271.54" y2="152.80"/>
  <line x1="316.61" y1="147.21" x2="307.90" y2="130.96"/>
  <line x1="353.30" y1="129.81" x2="346.23" y2="112.79"/>
  <line x1="391.53" y1="116.10" x2="386.16" y2="98.47"/>
  <line x1="430.91" y1="106.20" x2="427.30" y2="88.12"/>
  <line x1="471.08" y1="100.20" x2="469.26" y2="81.86"/>
  <line x1="511.64" y1="98.18" x2="511.62" y2="79.74"/>
  <line x1="552.20" y1="100.13" x2="553.99" y2="81.79"/>
  <line x1="592.38" y1="106.06" x2="595.96" y2="87.98"/>
  <line x1="631.78" y1="115.89" x2="637.12" y2="98.25"/>
  <line x1="670.03" y1="129.54" x2="677.07" y2="112.50"/>
  <line x1="706.76" y1="146.87" x2="715.43" y2="130.61"/>
  <line x1="741.61" y1="167.72" x2="751.83" y2="152.38"/>
  <line x1="774.25" y1="191.88" x2="785.93" y2="177.62"/>
  <line x1="804.36" y1="219.13" x2="817.38" y2="206.08"/>
  <line x1="831.66" y1="249.19" x2="845.90" y2="237.49"/>
  <line x1="855.88" y1="281.79" x2="871.20" y2="271.54"/>
  <line x1="876.79" y1="316.61" x2="893.04" y2="307.90"/>
  <line x1="894.19" y1="353.30" x2="911.21" y2="346.23"/>
  <line x1="907.90" y1="391.53" x2="925.53" y2="386.16"/>
  <line x1="917.80" y1="430.91" x2="935.88" y2="427.30"/>
  <line x1="923.80" y1="471.08" x2="942.14" y2="469.26"/>
  <line x1="925.82" y1="511.64" x2="944.26" y2="511.62"/>
  <line x1="923.87" y1="552.20" x2="942.21" y2="553.99"/>
</g>
<g data-ring="8" stroke="#FFFFFF" stroke-width="5.939" stroke-linecap="round">
  <line x1="962.35" y1="614.32" x2="980.32" y2="618.40"/>
  <line x1="950.15" y1="657.97" x2="967.64" y2="663.79"/>
  <line x1="933.73" y1="700.21" x2="950.57" y2="707.72"/>
  <line x1="913.25" y1="740.64" x2="929.27" y2="749.76"/>
  <line x1="888.91" y1="778.87" x2="903.95" y2="789.52"/>
  <line x1="860.94" y1="814.53" x2="874.87" y2="826.60"/>
  <line x1="829.61" y1="847.27" x2="842.28" y2="860.65"/>
  <line x1="795.21" y1="876.79" x2="806.52" y2="891.35"/>
  <line x1="758.10" y1="902.79" x2="767.92" y2="918.39"/>
  <line x1="718.61" y1="925.03" x2="726.85" y2="941.52"/>
  <line x1="677.13" y1="943.29" x2="683.72" y2="960.51"/>
  <line x1="634.06" y1="957.40" x2="638.93" y2="975.18"/>
  <line x1="589.81" y1="967.22" x2="592.92" y2="985.39"/>
  <line x1="544.82" y1="972.66" x2="546.13" y2="991.04"/>
  <line x1="499.51" y1="973.66" x2="499.01" y2="992.08"/>
  <line x1="454.32" y1="970.21" x2="452.02" y2="988.50"/>
  <line x1="409.68" y1="962.35" x2="405.60" y2="980.32"/>
  <line x1="366.03" y1="950.15" x2="360.21" y2="967.64"/>
  <line x1="323.79" y1="933.73" x2="316.28" y2="950.57"/>
  <line x1="283.36" y1="913.25" x2="274.24" y2="929.27"/>
  <line x1="245.13" y1="888.91" x2="234.48" y2="903.95"/>
  <line x1="209.47" y1="860.94" x2="197.40" y2="874.87"/>
  <line x1="176.73" y1="829.61" x2="163.35" y2="842.28"/>
  <line x1="147.21" y1="795.21" x2="132.65" y2="806.52"/>
  <line x1="121.21" y1="758.10" x2="105.61" y2="767.92"/>
  <line x1="98.97" y1="718.61" x2="82.48" y2="726.85"/>
  <line x1="80.71" y1="677.13" x2="63.49" y2="683.72"/>
  <line x1="66.60" y1="634.06" x2="48.82" y2="638.93"/>
  <line x1="56.78" y1="589.81" x2="38.61" y2="592.92"/>
  <line x1="51.34" y1="544.82" x2="32.96" y2="546.13"/>
  <line x1="50.34" y1="499.51" x2="31.92" y2="499.01"/>
  <line x1="53.79" y1="454.32" x2="35.50" y2="452.02"/>
  <line x1="61.65" y1="409.68" x2="43.68" y2="405.60"/>
  <line x1="73.85" y1="366.03" x2="56.36" y2="360.21"/>
  <line x1="90.27" y1="323.79" x2="73.43" y2="316.28"/>
  <line x1="110.75" y1="283.36" x2="94.73" y2="274.24"/>
  <line x1="135.09" y1="245.13" x2="120.05" y2="234.48"/>
  <line x1="163.06" y1="209.47" x2="149.13" y2="197.40"/>
  <line x1="194.39" y1="176.73" x2="181.72" y2="163.35"/>
  <line x1="228.79" y1="147.21" x2="217.48" y2="132.65"/>
  <line x1="265.90" y1="121.21" x2="256.08" y2="105.61"/>
  <line x1="305.39" y1="98.97" x2="297.15" y2="82.48"/>
  <line x1="346.87" y1="80.71" x2="340.28" y2="63.49"/>
  <line x1="389.94" y1="66.60" x2="385.07" y2="48.82"/>
  <line x1="434.19" y1="56.78" x2="431.08" y2="38.61"/>
  <line x1="479.18" y1="51.34" x2="477.87" y2="32.96"/>
  <line x1="524.49" y1="50.34" x2="524.99" y2="31.92"/>
  <line x1="569.68" y1="53.79" x2="571.98" y2="35.50"/>
  <line x1="614.32" y1="61.65" x2="618.40" y2="43.68"/>
  <line x1="657.97" y1="73.85" x2="663.79" y2="56.36"/>
  <line x1="700.21" y1="90.27" x2="707.72" y2="73.43"/>
  <line x1="740.64" y1="110.75" x2="749.76" y2="94.73"/>
  <line x1="778.87" y1="135.09" x2="789.52" y2="120.05"/>
  <line x1="814.53" y1="163.06" x2="826.60" y2="149.13"/>
  <line x1="847.27" y1="194.39" x2="860.65" y2="181.72"/>
  <line x1="876.79" y1="228.79" x2="891.35" y2="217.48"/>
  <line x1="902.79" y1="265.90" x2="918.39" y2="256.08"/>
  <line x1="925.03" y1="305.39" x2="941.52" y2="297.15"/>
  <line x1="943.29" y1="346.87" x2="960.51" y2="340.28"/>
  <line x1="957.40" y1="389.94" x2="975.18" y2="385.07"/>
  <line x1="967.22" y1="434.19" x2="985.39" y2="431.08"/>
  <line x1="972.66" y1="479.18" x2="991.04" y2="477.87"/>
  <line x1="973.66" y1="524.49" x2="992.08" y2="524.99"/>
  <line x1="970.21" y1="569.68" x2="988.50" y2="571.98"/>
</g>
<circle cx="512.0" cy="512.0" r="12.29" fill="#FFFFFF"/>
</svg>